<svg xmlns="http://www.w3.org/2000/svg" width="40" height="40" fill="none" viewBox="0 0 40 40"><g clip-path="url(#a)"><path fill="#008799" d="M20 40c11.046 0 20-8.954 20-20S31.046 0 20 0 0 8.954 0 20s8.954 20 20 20"/><path fill="#fcfbff" d="M16.154 29.709c-4.459 0-8.104-3.644-8.104-8.104 0-3.165 1.823-5.946 4.507-7.24v-2.926c-4.172 1.487-7.192 5.467-7.192 10.166 0 5.946 4.843 10.79 10.79 10.79 4.698 0 8.678-3.021 10.165-7.193h-2.925c-1.294 2.685-4.076 4.507-7.24 4.507m14.517-10.576v-3.282c1.12.28 2.001.64 2.001 1.601 0 .881-.76 1.522-2.001 1.681m-1.52 3.042h1.6v-1.24c2.362-.281 3.883-1.642 3.883-3.483 0-2.562-2.041-3.122-3.962-3.483v-3.402c.92.08 1.92.36 2.842.8v-2a9.4 9.4 0 0 0-2.762-.561v-1.2H29.15v1.2c-2.441.28-3.842 1.641-3.842 3.362 0 2.602 2.001 3.202 3.922 3.563v3.402c-1.16-.16-2.401-.64-3.842-1.4v2.12c1.24.601 2.521 1.002 3.762 1.081zm.08-8.365c-1.121-.24-1.962-.64-1.962-1.642 0-.92.72-1.48 1.961-1.601v3.242"/><path fill="#fcfbff" d="M15.527 20.826h-1.902l4.273-11.873h2.07l4.272 11.873h-1.9l-3.357-9.716h-.093zm.319-4.65h6.168v1.508h-6.168z"/></g><defs><clipPath id="a"><path fill="#fff" d="M0 0h40v40H0z"/></clipPath></defs></svg>