<svg xmlns="http://www.w3.org/2000/svg" width="40" height="40" fill="none" viewBox="0 0 40 40"><circle cx="20" cy="20" r="20" fill="#0a0a0a"/><path fill="#00d084" d="M19.535 9v8.193a.38.38 0 0 1-.651.27l-3.86-3.767 1.618-4.203A.765.765 0 0 1 17.358 9zm0 11.16v4.604c0 .306-.363.455-.586.25l-5.98-5.635 1.758-4.557 4.361 4.269c.289.279.447.66.447 1.069m0 7.421v2.065h-9.272a.76.76 0 0 1-.707-1.032l3.106-8.091 6.445 6.082c.279.251.428.604.428.976M20.53 9v8.193a.38.38 0 0 0 .65.27l3.851-3.767-1.609-4.203A.775.775 0 0 0 22.706 9zm0 11.16v4.604c0 .306.363.455.586.25l5.98-5.635-1.758-4.557-4.362 4.269c-.288.279-.455.66-.455 1.069zm0 7.421v2.065h9.263a.76.76 0 0 0 .716-1.032l-3.116-8.091-6.445 6.082c-.27.251-.418.604-.418.976"/></svg>