<svg xmlns="http://www.w3.org/2000/svg" width="40" height="40" fill="none" viewBox="0 0 40 40"><circle cx="20" cy="20" r="20" fill="#0a0a0a"/><g transform="translate(9.5 9) scale(0.093)"><path fill="#00D084" d="M107.9 0v88.1c0 3.7-4.4 5.5-7 2.9L59.4 50.5 76.8 5.3C78 2.1 81.1 0 84.5 0zM107.9 120v49.5c0 3.3-3.9 4.9-6.3 2.7l-64.3-60.6 18.9-49 46.9 45.9c3.1 3 4.8 7.1 4.8 11.5M107.9 199.8V222H8.2c-5.7 0-9.7-5.8-7.6-11.1l33.4-87 69.3 65.4c3 2.7 4.6 6.5 4.6 10.5M118.6 0v88.1c0 3.7 4.4 5.5 7 2.9L167 50.5 149.7 5.3C148.4 2.1 145.4 0 142 0zM118.6 120v49.5c0 3.3 3.9 4.9 6.3 2.7l64.3-60.6-18.9-49-46.9 45.9c-3.1 3-4.9 7.1-4.9 11.5zM118.6 199.8V222h99.6c5.8 0 9.8-5.8 7.7-11.1l-33.5-87-69.3 65.4c-2.9 2.7-4.5 6.5-4.5 10.5"/></g></svg>
