<svg xmlns="http://www.w3.org/2000/svg" width="40" height="40" fill="none" viewBox="0 0 40 40"><g clip-path="url(#a)"><path fill="#4EEAFF" d="M20 40c11.046 0 20-8.954 20-20S31.046 0 20 0 0 8.954 0 20s8.954 20 20 20"/><path fill="#070010" d="M15.861 29.803c-4.459 0-8.104-3.644-8.104-8.104 0-3.165 1.823-5.947 4.508-7.241v-2.925C8.093 13.02 5.072 17 5.072 21.7c0 5.946 4.843 10.79 10.79 10.79 4.699 0 8.679-3.021 10.165-7.193h-2.925c-1.294 2.685-4.076 4.507-7.24 4.507M30.966 18.97v-3.282c1.12.28 2.001.64 2.001 1.601 0 .88-.76 1.521-2.001 1.68m-1.52 3.042h1.6V20.77c2.362-.28 3.883-1.642 3.883-3.483 0-2.561-2.041-3.122-3.962-3.482v-3.403c.92.08 1.92.36 2.842.8v-2a9.4 9.4 0 0 0-2.762-.56V7.44h-1.602v1.201c-2.441.28-3.842 1.642-3.842 3.363 0 2.601 2.001 3.202 3.922 3.562v3.403c-1.16-.16-2.401-.64-3.842-1.401v2.122c1.24.6 2.521 1 3.762 1.08zm.08-8.366c-1.121-.24-1.962-.64-1.962-1.641 0-.921.72-1.482 1.961-1.602z"/><path fill="#070010" d="M24.534 12.706h-1.76a2.7 2.7 0 0 0-1.056-1.722q-.4-.299-.897-.451a3.5 3.5 0 0 0-1.044-.152q-.998 0-1.79.502-.784.503-1.24 1.473-.453.97-.452 2.37 0 1.41.451 2.382.457.97 1.248 1.467.79.495 1.777.496.547 0 1.039-.146.496-.152.897-.446.4-.294.677-.717.282-.429.39-.982l1.76.006a4.7 4.7 0 0 1-.547 1.569 4.3 4.3 0 0 1-1.033 1.23 4.7 4.7 0 0 1-1.433.796 5.3 5.3 0 0 1-1.761.282q-1.501 0-2.675-.711-1.175-.716-1.851-2.049-.672-1.332-.672-3.177 0-1.851.678-3.177.677-1.333 1.85-2.043 1.175-.717 2.67-.717.92 0 1.716.265a4.5 4.5 0 0 1 1.439.768q.638.503 1.055 1.23.417.723.564 1.654"/></g><defs><clipPath id="a"><path fill="#fff" d="M0 0h40v40H0z"/></clipPath></defs></svg>