<svg xmlns="http://www.w3.org/2000/svg" width="40" height="40" fill="none" viewBox="0 0 40 40"><g clip-path="url(#a)"><path fill="#4EEAFF" d="M20 40c11.046 0 20-8.954 20-20S31.046 0 20 0 0 8.954 0 20s8.954 20 20 20"/><path fill="#070010" d="M18.815 30.8c-4.46 0-8.104-3.644-8.104-8.104 0-3.165 1.822-5.946 4.507-7.24V12.53c-4.172 1.486-7.192 5.466-7.192 10.165 0 5.947 4.843 10.79 10.79 10.79 4.698 0 8.678-3.02 10.165-7.193h-2.925c-1.294 2.686-4.076 4.507-7.24 4.507"/><path fill="#070010" d="M22.14 17.76h6.708l.605-2.018h-7.918c-.05-.302-.05-.554-.05-.857s0-.605.05-.908h8.472l.605-2.017H22.09c.907-1.966 2.773-3.126 5.295-3.126 1.361 0 2.672.352 3.883 1.008l.706-2.27c-1.362-.705-2.976-1.058-4.59-1.058-3.782 0-6.757 2.168-7.866 5.396H17.3l-.605 1.916h2.421c-.05.352-.05.705-.05 1.059s0 .655.05 1.009H17.3l-.605 1.916h2.875c1.059 3.227 3.983 5.345 7.765 5.345a8.64 8.64 0 0 0 4.538-1.26v-2.623c-1.26.959-2.773 1.563-4.488 1.563-2.42 0-4.336-1.16-5.244-3.076"/></g><defs><clipPath id="a"><path fill="#fff" d="M0 0h40v40H0z"/></clipPath></defs></svg>