<svg xmlns="http://www.w3.org/2000/svg" width="40" height="40" fill="none" viewBox="0 0 40 40"><g clip-path="url(#a)"><path fill="#7005fc" d="M20 40c11.046 0 20-8.954 20-20S31.046 0 20 0 0 8.954 0 20s8.954 20 20 20"/><path fill="#fcfbff" d="M19.446 30.762c-4.46 0-8.104-3.644-8.104-8.104 0-3.164 1.822-5.946 4.507-7.24v-2.925c-4.172 1.486-7.193 5.466-7.193 10.165 0 5.947 4.843 10.79 10.79 10.79 4.699 0 8.679-3.02 10.165-7.193h-2.925c-1.294 2.686-4.076 4.507-7.24 4.507"/><path fill="#fcfbff" d="M21.106 22.879V6.587h10.103v2.116h-7.645v4.964h6.92v2.108h-6.92v7.104zm-2.434-2.8v-1.647h7.31v1.646z"/><path fill="#fcfbff" d="M19.446 30.762c-4.46 0-8.104-3.644-8.104-8.104 0-3.164 1.822-5.946 4.507-7.24v-2.925c-4.172 1.486-7.193 5.466-7.193 10.165 0 5.947 4.843 10.79 10.79 10.79 4.699 0 8.679-3.02 10.165-7.193h-2.925c-1.294 2.686-4.076 4.507-7.24 4.507"/><path fill="#fcfbff" d="M21.174 22.734v-16h9.922v2.078h-7.508v4.875h6.797v2.07h-6.797v6.977zm-2.39-2.75v-1.617h7.18v1.617z"/></g><defs><clipPath id="a"><path fill="#fff" d="M0 0h40v40H0z"/></clipPath></defs></svg>