<svg xmlns="http://www.w3.org/2000/svg" width="40" height="40" fill="none" viewBox="0 0 40 40"><g clip-path="url(#a)"><path fill="#FF5FFA" d="M20 40c11.046 0 20-8.954 20-20S31.046 0 20 0 0 8.954 0 20s8.954 20 20 20"/><path fill="#070010" d="M19.626 30.604c-4.46 0-8.104-3.644-8.104-8.104 0-3.165 1.822-5.946 4.507-7.24v-2.926c-4.172 1.487-7.193 5.467-7.193 10.166 0 5.946 4.843 10.79 10.79 10.79 4.699 0 8.679-3.021 10.165-7.193h-2.925c-1.294 2.685-4.075 4.507-7.24 4.507"/><path fill="#070010" d="m22.14 6.75 3.828 8.625-1.758.992-4.664-9.617zm2.609 8.601 3.813-8.601h2.593l-4.664 9.617zm1.79-1.015v8.414h-2.407v-8.414zm3.39.351v1.579h-9.266v-1.579zm0 3.094v1.578h-9.266v-1.578z"/></g><defs><clipPath id="a"><path fill="#fff" d="M0 0h40v40H0z"/></clipPath></defs></svg>