<svg xmlns="http://www.w3.org/2000/svg" width="40" height="40" fill="none" viewBox="0 0 40 40"><g clip-path="url(#a)"><path fill="#8C35FD" d="M20 40c11.046 0 20-8.954 20-20S31.046 0 20 0 0 8.954 0 20s8.954 20 20 20"/><path fill="#FCFBFF" d="M30.88 22.748h-2.735l-4.35-6.882h2.66z"/><path fill="#FCFBFF" d="M19.028 22.748v-16h5.704q1.86 0 3.085.64 1.235.642 1.844 1.774.61 1.125.61 2.602 0 1.468-.618 2.586-.609 1.11-1.843 1.726-1.227.617-3.086.617h-4.32v-2.078h4.101q1.172 0 1.906-.336.743-.337 1.086-.976.345-.64.344-1.54 0-.906-.352-1.57-.343-.663-1.086-1.015-.734-.36-1.93-.36h-3.03v13.93z"/><path fill="#FCFBFF" d="M25.844 22.749h1.617l-4.006-6.235h-1.617z"/><path fill="#FCFBFF" d="M19.953 30.604c-4.46 0-8.104-3.644-8.104-8.104 0-3.165 1.822-5.947 4.507-7.241v-2.925C12.184 13.82 9.163 17.8 9.163 22.5c0 5.946 4.844 10.79 10.79 10.79 4.7 0 8.68-3.022 10.166-7.194h-2.925c-1.294 2.686-4.076 4.508-7.24 4.508"/></g><defs><clipPath id="a"><path fill="#fff" d="M0 0h40v40H0z"/></clipPath></defs></svg>