<svg xmlns="http://www.w3.org/2000/svg" width="40" height="40" fill="none" viewBox="0 0 40 40"><g clip-path="url(#a)"><path fill="#CC00C5" d="M20 40c11.046 0 20-8.954 20-20S31.046 0 20 0 0 8.954 0 20s8.954 20 20 20"/><path fill="#fff" d="M30.783 12.423c-.279-.237-3.953.033-3.953.033-.584.115-.601-.278-.601-.278l-.045-.195s-.874-5.233-4.826-5.47c0 0-2.785-.125-5.291 2.663 0 0-1.732 1.927-2.086 2.72a.86.86 0 0 1-.557.335s-3.534 1.392-4.018 1.75c-.485.36-.337.767-.337.767a2.25 2.25 0 0 0 1.877 2.17s.364.13 1.506-1.142l1.393-1.307s1.092 3.206 1.256 3.362.314.357 1.14.261c.823-.094 1.842-.732 1.918-1.67 0 0 .086-.207-.404-.683 0 0-2.272-2.757-2.332-2.819-.058-.061-.164-.186.047-.448.212-.261 2.3-3.51 5.013-3.73 0 0 1.596-.202 1.892 1.737 0 0-.788-.265-1.009-.134s-.375.27-.303.866v.997c0 .106-.044.357-.601.248 0 0-3.684-.278-3.951-.033-.268.245-.198.323.047.649l3.648 4.798a1.64 1.64 0 0 0-.66 1.604c.11.657.633.965 1.014 1.105.263.096.582-.004.82.141.063.039.11.102.12.204.034.36.334 1.537.318 1.75-.017.211.058.277-.46.35-.517.072-3.397.256-3.62 1.156l3.026.11c.394.014.815.062 1.086.348.136.145.239.318.3.508l.094 1.233s.004.07 0 .11a.23.23 0 0 1-.13.187c-.036.017-.096.03-.096.03l-.33.016s-2.045.111-2.407 1.113l1.765.055c.514.016 1.209.014 1.34.511a1 1 0 0 1 .014.09c.023.406.02 1.05.02 1.05s0 .189-.368.189c-.367 0-1.76.317-1.871 1.113 0 0 1.918.023 1.95.037.113.039.212.11.286.205.145.189.171.448.149.685q-.01.099-.036.193c-.032.114-.117.24-.185.337a.7.7 0 0 0-.103.195c-.058.156-.133.43-.024.588.244.278.835.417 1.423.404.588-.014 1.175-.12 1.42-.404.158-.228-.072-.705-.072-.705s-.14-.198-.178-.248a1.1 1.1 0 0 1-.076-.715.62.62 0 0 1 .412-.535c.045-.014 1.963-.037 1.963-.037-.11-.802-1.51-1.113-1.87-1.113-.362 0-.354-.178-.354-.178s0-.644.019-1.05c.01-.203.154-.348.297-.44.175-.114.388-.14.596-.145l2.229-.058c-.363-1.014-2.407-1.114-2.407-1.114l-.331-.017s-.06-.013-.096-.03a.23.23 0 0 1-.13-.187c-.004-.04 0-.108 0-.108l.05-.641c.03-.395.074-.814.346-1.1.27-.287.69-.336 1.084-.35l3.026-.11c-.231-.899-3.11-1.077-3.62-1.155s-.443-.14-.46-.35c-.016-.213.28-1.393.32-1.75a.3.3 0 0 1 .046-.13c.195-.288.67-.118.991-.253.367-.155.816-.465.916-1.067a1.63 1.63 0 0 0-.658-1.604l3.62-4.798c.256-.348.323-.435.058-.671z"/></g><defs><clipPath id="a"><path fill="#fff" d="M0 0h40v40H0z"/></clipPath></defs></svg>