<svg xmlns="http://www.w3.org/2000/svg" width="40" height="40" fill="none" viewBox="0 0 40 40"><g clip-path="url(#a)"><path fill="#7005fc" d="M20 40c11.046 0 20-8.954 20-20S31.046 0 20 0 0 8.954 0 20s8.954 20 20 20"/><path fill="#fff" d="M30.289 23.09h2.736L25.9 12.012l5.491-5.491H26.53l-6.048 6.047V6.521h-3.44V23.09h3.44v-5.66l1.223-1.223 4.413 6.882h2.736l-5.548-8.484.993-.992z"/><path fill="#fff" d="M17.765 30.795c-4.46 0-8.104-3.644-8.104-8.104 0-3.165 1.822-5.946 4.507-7.24v-2.926c-4.172 1.487-7.193 5.467-7.193 10.166 0 5.946 4.843 10.79 10.79 10.79 4.699 0 8.679-3.021 10.165-7.193h-2.924c-1.295 2.685-4.076 4.507-7.241 4.507"/></g><defs><clipPath id="a"><path fill="#fff" d="M0 0h40v40H0z"/></clipPath></defs></svg>