<svg xmlns="http://www.w3.org/2000/svg" width="40" height="40" viewBox="0 0 40 40" fill="none"><circle cx="20" cy="20" r="20" fill="#7005fc"/><path fill="#f7f6fa" d="M26.84 26.988V33.56H17.309c-5.38 0-9.376-3.87-9.376-9.28V14.688h6.53v8.04c0 2.706 1.691 4.253 4.38 4.253zM14.463 14.688V8.116h9.529c5.38 0 9.376 3.866 9.376 9.276v9.597h-6.53v-8.038c0-2.706-1.691-4.257-4.38-4.257H14.464z"/><g transform="translate(24 24)"><circle cx="8" cy="8" r="9" fill="#0d1117"/><g transform="scale(0.667)"><circle cx="12" cy="12" r="12" fill="#95CBF3"/><path fill="#405AE5" d="M0 12c0 5.225 3.34 9.67 8 11.317V.683C3.34 2.33 0 6.775 0 12ZM23.322 8.015c-.217-.01-.435-.015-.655-.015C14.567 8 8 14.567 8 22.667c0 .22.005.438.015.655 1.247.44 2.588.678 3.985.678 6.627 0 12-5.372 12-12 0-1.397-.239-2.738-.678-3.985Z"/></g></g></svg>
