<svg xmlns="http://www.w3.org/2000/svg" width="40" height="40" fill="none" viewBox="0 0 40 40"><g clip-path="url(#a)"><path fill="#82ff68" d="M20 40c11.046 0 20-8.954 20-20S31.046 0 20 0 0 8.954 0 20s8.954 20 20 20"/><path fill="#070010" d="M19.817 20.75c2.339-1.247 2.776-2.645 2.295-4.307h-2.558v-1.617h1.902c-.524-1.05-1.027-2.011-1.027-3.585 0-2.448 1.989-4.437 5.136-4.437 3.3 0 5.334 1.945 5.356 5.29h-2.383c.022-2.142-1.224-3.17-2.973-3.17-1.705 0-2.776.896-2.776 2.383 0 1.355.634 2.448 1.159 3.519h4.983v1.617H24.56c.306 1.552-.197 3.104-1.508 4.24h8.065v2.121h-11.3z"/><path fill="#070010" d="M19.672 30.51c-4.46 0-8.104-3.644-8.104-8.104 0-3.165 1.822-5.946 4.507-7.24V12.24c-4.172 1.486-7.193 5.466-7.193 10.165 0 5.947 4.843 10.79 10.79 10.79 4.699 0 8.679-3.02 10.165-7.193h-2.924c-1.295 2.686-4.076 4.507-7.241 4.507"/></g><defs><clipPath id="a"><path fill="#fff" d="M0 0h40v40H0z"/></clipPath></defs></svg>