<svg xmlns="http://www.w3.org/2000/svg" width="40" height="40" fill="none" viewBox="0 0 40 40"><g clip-path="url(#a)"><path fill="#b781fe" d="M20 40c11.046 0 20-8.954 20-20S31.046 0 20 0 0 8.954 0 20s8.954 20 20 20"/><path fill="#070010" d="M20.801 22.833v-5.759h-1.748V15.64h1.748v-1.838h-1.748v-1.434h1.748V6.833h2.33l2.13 5.535h2.644V6.833h1.77v5.535h1.748v1.435h-1.748v1.837h1.748v1.434h-1.748v5.76h-2.353l-2.129-5.76H22.55v5.76zm1.703-10.465h.941l-.94-2.778h-.09zm.045 3.272h2.107l-.673-1.838h-1.479zm3.9 0h1.5l-.044-1.838h-2.129zm1.456 4.034h.09l-.068-2.6h-.94z"/><path fill="#070010" d="M19.366 30.51c-4.46 0-8.104-3.644-8.104-8.104 0-3.165 1.822-5.946 4.507-7.24V12.24c-4.172 1.486-7.193 5.466-7.193 10.165 0 5.947 4.843 10.79 10.79 10.79 4.699 0 8.679-3.02 10.165-7.193h-2.925c-1.294 2.686-4.076 4.507-7.24 4.507"/></g><defs><clipPath id="a"><path fill="#fff" d="M0 0h40v40H0z"/></clipPath></defs></svg>