<svg xmlns="http://www.w3.org/2000/svg" width="32" height="32" fill="none" viewBox="0 0 32 32"><g clip-path="url(#a)"><mask id="b" width="32" height="32" x="0" y="0" maskUnits="userSpaceOnUse" style="mask-type:luminance"><path fill="#fff" d="M32 16c0-8.837-7.163-16-16-16S0 7.163 0 16s7.163 16 16 16 16-7.163 16-16"/></mask><g mask="url(#b)"><path fill="#0232ff" fill-rule="evenodd" d="M32 16c0 8.837-7.176 16-16.028 16C7.574 32 .684 25.552 0 17.345h21.185v-2.69H0C.684 6.448 7.574 0 15.972 0 24.824 0 32 7.163 32 16" clip-rule="evenodd"/></g></g><defs><clipPath id="a"><path fill="#fff" d="M0 0h32v32H0z"/></clipPath></defs></svg>