<svg aria-hidden="true" style="position:absolute;width:0;height:0" width="64" height="64" xmlns="http://www.w3.org/2000/svg" overflow="hidden"><defs><symbol id="brand_property_2_world" viewBox="0 0 64 64"><g clip-path="url(#clip0_4055_3968)"><path d="M32.09 4H32C16.6 4 4.05 16.5 4 31.91 3.95 47.35 16.47 59.95 31.91 60H32c15.4 0 27.95-12.5 28-27.91C60.05 16.65 47.53 4.05 32.09 4ZM10 31.93c0-2.85.57-5.57 1.57-8.06l6.01.02c-.91 5.34-.87 10.76.12 16.14l-6.18-.02a21.9 21.9 0 0 1-1.51-8.08H10Zm11.58-8.03 21.19.07c.98 5.35.91 10.75-.24 16.14l-20.81-.07a41.37 41.37 0 0 1-.14-16.14Zm25.19.08 5.72.02c.98 2.5 1.52 5.23 1.52 8.08 0 2.85-.57 5.57-1.57 8.06l-5.89-.02c1.03-5.38 1.1-10.8.22-16.14Zm3.74-3.85h-4.53a48.96 48.96 0 0 0-2.19-6.7c2.7 1.72 5 4.01 6.73 6.7h-.01ZM32 10h.07c2.11 0 4.16.32 6.09.89 1.6 3.04 2.85 6.11 3.73 9.22l-19.41-.06c.9-3.13 2.2-6.24 3.84-9.29 1.81-.48 3.71-.75 5.68-.75V10Zm-11.27 3.11c-.97 2.28-1.73 4.59-2.33 6.91L13.57 20c1.83-2.81 4.28-5.17 7.17-6.9l-.01.01Zm-7.24 30.76 5.07.02c.66 2.43 1.52 4.84 2.57 7.23-3.1-1.77-5.72-4.26-7.64-7.25ZM32 54h-.07c-1.82 0-3.59-.24-5.28-.66-1.68-3.13-2.99-6.28-3.94-9.44l18.8.06c-.96 3.13-2.28 6.24-3.96 9.33-1.77.46-3.63.71-5.55.71Zm11.13-3.04c1.02-2.31 1.87-4.65 2.52-6.99l4.78.02a22.147 22.147 0 0 1-7.3 6.98v-.01Z" fill="currentcolor"/></g><defs><clipPath id="clip0_4055_3968"><path fill="currentcolor" d="M0 0h64v64H0z"/></clipPath></defs></symbol><symbol id="brand_property_2_world_2" viewBox="0 0 64 64"><g clip-path="url(#clip0_4055_3969)" fill="currentcolor"><path d="M33.01 40.84c3.9-.29 6.69-2.28 6.7-5.68.01-3.4-1.53-4.71-6.66-5.62v-4.4c1.35.4 2.06 1.31 2.06 2.81h4.01c-.09-3.39-2.24-5.69-6.14-6.21v-2.8h-2.97v2.7c-3.81.39-6.18 2.48-6.19 5.28-.01 2.8 1.83 4.91 6.15 5.72l-.02 4.7c-1.44-.4-2.36-1.21-2.46-3.11h-4.11c-.01 3.59 2.45 6 6.55 6.41v2.8h2.97v-2.7l.11.1Zm-4.78-14.02c0-.9.72-1.6 1.86-1.79v3.8c-1.55-.51-1.86-1.11-1.86-2.01Zm7.16 8.53c0 1.2-.93 1.9-2.37 2.19v-4.2c1.96.51 2.37 1.11 2.37 2.01ZM7.59 20.963l-.013 3.96 12.29.039.012-3.96-12.29-.04ZM44.402 21.078l-.013 3.96 11.18.037.013-3.96-11.18-.037ZM7.532 39.337l-.013 3.96 12.29.04.013-3.96-12.29-.04ZM44.342 39.46l-.013 3.96 11.18.036.013-3.96-11.18-.037Z"/><path d="m43.44 39.418-.013 3.96 11.98.04.013-3.96-11.98-.04ZM23.21 56.61l-.23-.43c-8.95-16.55-8.84-34.49.3-50.5l3.44 1.96c-8.56 14.99-8.64 31.13-.25 46.65l.23.43-3.49 1.89Z"/><path d="m39.73 56.66-3.47-1.91.23-.43c8.49-15.47 8.51-31.6.05-46.65L40 5.73c9.04 16.07 9.02 34.01-.03 50.5l-.23.43h-.01Z"/><path d="M32 60h-.09C16.47 59.95 3.95 47.35 4 31.91 4.05 16.5 16.6 4 32 4h.09C47.53 4.05 60.05 16.65 60 32.09 59.95 47.5 47.4 60 32 60Zm0-50.05c-12.13 0-22.01 9.84-22.05 21.98-.04 12.16 9.82 22.09 21.98 22.13H32c12.13 0 22.01-9.85 22.05-21.98.04-12.16-9.82-22.09-21.98-22.12H32v-.01Z"/></g><defs><clipPath id="clip0_4055_3969"><path fill="currentcolor" d="M0 0h64v64H0z"/></clipPath></defs></symbol><symbol id="brand_property_2_message" viewBox="0 0 64 64"><g clip-path="url(#clip0_4055_3970)"><path d="M9.996 10v5.927H4V54h56V10H9.996Zm39.877 6.006L32.005 34.594 14.156 16.006h35.718ZM9.996 48.004V20.317l17.928 18.508 4.071 4.2 4.07-4.2 17.929-18.489v27.658H9.996v.01Z" fill="currentcolor"/></g><defs><clipPath id="clip0_4055_3970"><path fill="currentcolor" d="M0 0h64v64H0z"/></clipPath></defs></symbol><symbol id="brand_property_2_settings" viewBox="0 0 64 64"><g clip-path="url(#clip0_4055_3971)" fill="currentcolor"><path d="m25.36 60-10.5-5.19 1.58-8.11-1.8-2.31-8.06-.23-2.59-11.65 7.16-3.79.64-2.88-4.85-6.6L14.2 9.9l7.35 3.38 2.6-1.28 2.01-8.01h11.65L39.82 12l2.6 1.28 7.35-3.38 7.26 9.34-4.85 6.6.64 2.88 7.16 3.79-2.59 11.65-8.06.23-1.8 2.31 1.58 8.11L38.61 60l-5.2-6.32h-2.88L25.33 60h.03Zm2.47-12.34h8.33l4.02 4.89 2.3-1.14-1.22-6.27 5.2-6.68 6.24-.18.57-2.56-5.54-2.93-1.86-8.33 3.75-5.11-1.59-2.05-5.69 2.62-7.51-3.71-1.55-6.2h-2.55l-1.55 6.2-7.51 3.71-5.69-2.62-1.59 2.05 3.75 5.11-1.85 8.33-5.54 2.93.57 2.55 6.24.18 5.2 6.68-1.22 6.27 2.3 1.14 4.02-4.89-.03.01Z"/><path d="M36 41h-6.4C26 41 23 38 23 34.4V28h5v6.4c0 .8 1 1.6 1.8 1.6H36v5Z"/><path d="M41 36h-5v-6c0-.8-1.2-2-2-2h-6v-5h6.2c3.6 0 6.8 3 6.8 6.6V36Z"/></g><defs><clipPath id="clip0_4055_3971"><path fill="currentcolor" d="M0 0h64v64H0z"/></clipPath></defs></symbol><symbol id="brand_property_2_arrow" viewBox="0 0 64 64"><g clip-path="url(#clip0_4055_3972)"><path d="m55.6 32 4.4-4.4L39.1 7l-4.4 4.4L52.6 29H4v6h48.5L34.7 52.7l4.5 4.3L60 36.3 55.6 32Z" fill="currentcolor"/></g><defs><clipPath id="clip0_4055_3972"><path fill="currentcolor" d="M0 0h64v64H0z"/></clipPath></defs></symbol><symbol id="brand_property_2_arrow_2" viewBox="0 0 64 64"><g clip-path="url(#clip0_4055_3973)" fill="currentcolor"><path d="m12.81 22.16 11.1-10.82L19.48 7 5.03 21.08l4.35 4.26v.11L5 29.79l14.66 14.13 4.4-4.37-11.93-11.51H53v23.02h6v-28.9H12.81ZM52.99 51.12H20.93V57h32.06v-5.88Z"/></g><defs><clipPath id="clip0_4055_3973"><path fill="currentcolor" d="M0 0h64v64H0z"/></clipPath></defs></symbol><symbol id="brand_property_2_user" viewBox="0 0 64 64"><g clip-path="url(#clip0_4055_3974)" fill="currentcolor"><path d="M57 60H7V39h6v-6h36.2l7.8 7.8V60Zm-44-6h38V43.3l-4.2-4.2H13v15-.1ZM31 30c-7.2 0-13-5.8-13-13S23.8 4 31 4s13 5.8 13 13-5.8 13-13 13Zm0-20c-3.9 0-7 3.1-7 7s3.1 7 7 7 7-3.1 7-7-3.1-7-7-7Z"/></g><defs><clipPath id="clip0_4055_3974"><path fill="currentcolor" d="M0 0h64v64H0z"/></clipPath></defs></symbol><symbol id="brand_property_2_user_2" viewBox="0 0 64 64"><g clip-path="url(#clip0_4055_3975)" fill="currentcolor"><path d="m34.344 38.45-2.395-3.903H11.113v6.113H5.061L5 58.888 36.534 59l.051-16.974-2.241-3.566v-.01ZM30.44 52.988l-19.307-.082.04-12.247h17.352l1.946 3.047-.03 9.271v.01ZM20.314 11.113h-.031c-5.604 0-10.179 4.544-10.189 10.158-.02 5.614 4.534 10.2 10.148 10.22h.041c5.604 0 10.168-4.545 10.189-10.159.01-5.614-4.544-10.199-10.158-10.219Zm-.031 14.264h-.02a4.079 4.079 0 0 1-4.056-4.085c0-2.242 1.834-4.066 4.076-4.066h.01a4.087 4.087 0 0 1 4.066 4.086 4.085 4.085 0 0 1-4.076 4.065ZM59 36.36l-.05 18.564-18.3-.081.02-6.358 12.186.061.03-10.403-1.956-3.29-14.345-.052-4.076-6.367 21.855.07L59 36.36ZM43.004 5h-.03c-5.605 0-10.17 4.544-10.19 10.158-.02 5.614 4.535 10.199 10.148 10.22h.041c5.604 0 10.169-4.545 10.189-10.159C53.182 9.605 48.618 5.02 43.004 5Zm-.051 14.264a4.079 4.079 0 0 1-4.055-4.085c0-2.242 1.834-4.066 4.075-4.066h.01c1.09 0 2.11.428 2.884 1.203a4.07 4.07 0 0 1 1.182 2.883c-.01 2.252-1.875 4.065-4.096 4.065Z"/></g><defs><clipPath id="clip0_4055_3975"><path fill="currentcolor" d="M0 0h64v64H0z"/></clipPath></defs></symbol><symbol id="brand_property_2_time" viewBox="0 0 64 64"><g clip-path="url(#clip0_4055_3976)" fill="currentcolor"><path d="M10 32c0-12.1 9.9-22 22-22s22 9.9 22 22h6C60 16.6 47.4 4 32 4S4 16.6 4 32s12.6 28 28 28v-6c-12.1 0-22-9.9-22-22Z"/><path d="m45.5 48.7-3.6-3.6-3.6 3.6 7.1 7 .1.1L57.2 44l-3.5-3.5-8.2 8.2ZM29.2 14v23h17v-5H34.4V14h-5.2Z"/></g><defs><clipPath id="clip0_4055_3976"><path fill="currentcolor" d="M0 0h64v64H0z"/></clipPath></defs></symbol><symbol id="brand_property_2_power" viewBox="0 0 64 64"><g clip-path="url(#clip0_4055_3977)"><path d="M56.9 22H40v6h9L31 50.8V31H15.5L34 12v10h6V4h-6L7 31v6h18v23h7l25-32-.1-6Z" fill="currentcolor"/></g><defs><clipPath id="clip0_4055_3977"><path fill="currentcolor" d="M0 0h64v64H0z"/></clipPath></defs></symbol><symbol id="brand_property_2_shield" viewBox="0 0 64 64"><g clip-path="url(#clip0_4055_3978)" fill="currentcolor"><path d="M50 10.1v26.5l6 5.9V10.1h-6V4H18.6l5.9 6.1H50ZM29.8 23.1 10.8 4H6v3.9l3 3V42l25 18 1.8-1.3 12.5-9L54 55h4v-4.4m-24 2.1L15 39.1V16.9l29 28.6-10 7.2Z"/></g><defs><clipPath id="clip0_4055_3978"><path fill="currentcolor" d="M0 0h64v64H0z"/></clipPath></defs></symbol><symbol id="brand_property_2_puzzle" viewBox="0 0 64 64"><g clip-path="url(#clip0_4055_3979)"><path d="M59.98 30.835c.02-6.392-4.638-11.293-10.996-11.773V7l-15.165.07.03 5.881h-.03c-.01 3.43-2.859 6.311-6.227 6.311h-.02c-1.56 0-3.03-.65-4.139-1.82-1.15-1.21-1.77-2.81-1.77-4.53h-.01l.01-5.872-11.655-.03v6.001l5.658.01c.02 3.22 1.23 6.252 3.409 8.552 2.249 2.37 5.258 3.68 8.467 3.69h.04c6.587 0 12.165-5.58 12.215-12.222h3.18v11.973h4.987c3.549.01 6.018 2.4 6.008 5.8 0 1.731-.62 3.311-1.73 4.452-1.089 1.12-2.598 1.74-4.228 1.74h-4.028v13.993h-4.049c-.49-6.342-5.688-11.373-12.045-11.393h-.04c-6.198 0-11.297 5.011-11.806 11.383h-6.038l.08-37.948H4.09L4 57h3.019s7.287-.04 14.975-.01l.02-5.131c.08-3.47 2.679-6.261 5.858-6.261h.02c3.328.01 6.127 2.93 6.117 6.381v5.011h15.995V42.827c2.509-.4 4.788-1.56 6.567-3.39 2.2-2.271 3.419-5.322 3.429-8.612l-.02.01Z" fill="currentcolor"/></g><defs><clipPath id="clip0_4055_3979"><path fill="currentcolor" d="M0 0h64v64H0z"/></clipPath></defs></symbol><symbol id="brand_property_2_liquidity" viewBox="0 0 64 64"><g clip-path="url(#clip0_4055_3980)" fill="currentcolor"><path d="M33.948 47.255c5.297-.458 9.042-3.114 9.052-7.88.01-4.069-2.063-6.456-9.012-7.83l.02-6.059c1.812.548 2.733 1.801 2.824 3.9l5.477.02c-.16-4.725-2.984-7.84-8.281-8.566v-3.83H30.683l-.74-.01v3.75c-5.188.488-8.322 3.393-8.332 7.293-.01 4.368 2.503 6.726 8.271 7.95l-.02 6.556c-1.892-.497-3.254-1.691-3.314-4.298L21 38.231c.02 5.044 3.355 8.258 8.842 8.944v3.81h3.465l.62.01v-3.74h.02Zm-7.12-20.127c0-1.433 1.081-2.437 2.824-2.865l-.02 5.92c-2.303-.776-2.804-1.761-2.804-3.065v.01ZM37.773 40.4c0 1.83-1.382 2.975-3.565 3.383l.02-6.547c2.934.846 3.555 1.781 3.545 3.164Z"/><path d="M32.1 60c-6.4 0-12.9-2.4-17.8-7.3C9.6 48 7 41.7 7 35.1c0-6.6 2.6-12.9 7.3-17.6L27.9 4 32 8.3 36.1 4l13.6 13.5c4.7 4.7 7.3 11 7.3 17.6 0 6.6-2.6 12.9-7.3 17.6-4.9 4.8-11.3 7.3-17.8 7.3h.2ZM32 8.4 18.5 21.8c-3.6 3.6-5.5 8.3-5.5 13.3s2 9.7 5.5 13.3c7.4 7.4 19.6 7.4 27 0 5-5 5.5-8.3 5.5-13.3s-2-9.7-5.5-13.3L31.9 8.4h.1Z"/></g><defs><clipPath id="clip0_4055_3980"><path fill="currentcolor" d="M0 0h64v64H0z"/></clipPath></defs></symbol><symbol id="brand_property_2_settings_2" viewBox="0 0 64 64"><g clip-path="url(#clip0_4055_3981)" fill="currentcolor"><path d="M53 14V7H32v7H4v6h28v9h15v-6h-9V13h9v10h6v-3h7v-6h-7ZM32 35H17v6h9v10h-9V41h-6v3H4v6h7v7h21v-7h28v-6H32v-9Z"/></g><defs><clipPath id="clip0_4055_3981"><path fill="currentcolor" d="M0 0h64v64H0z"/></clipPath></defs></symbol><symbol id="brand_property_2_slippage" viewBox="0 0 64 64"><g clip-path="url(#clip0_4055_3982)" fill="currentcolor"><path d="M16 22h-6v26h6V22ZM28 28h-6v20h6V28ZM60 52H4v6h56v-6ZM47 41c0-2.02 2.79-7 7-7v-6c-2.68 0-5.04.93-7 2.35V11h-6v19.35C39.04 28.93 36.68 28 34 28v6c4.21 0 7 4.98 7 7h6Z"/></g><defs><clipPath id="clip0_4055_3982"><path fill="currentcolor" d="M0 0h64v64H0z"/></clipPath></defs></symbol><symbol id="brand_property_2_chart_1" viewBox="0 0 64 64"><g clip-path="url(#clip0_4055_3983)" fill="currentcolor"><path d="M16 22h-6v26h6V22ZM28 28h-6v20h6V28ZM40 36h-6v12h6V36ZM52 36h-6v12h6V36ZM60 52H4v6h56v-6Z"/></g><defs><clipPath id="clip0_4055_3983"><path fill="currentcolor" d="M0 0h64v64H0z"/></clipPath></defs></symbol><symbol id="brand_property_2_chart_2" viewBox="0 0 64 64"><g clip-path="url(#clip0_4055_3984)" fill="currentcolor"><path d="M48 10h6v38h-6V10ZM36 22h6v26h-6V22ZM24 32h6v16h-6V32ZM12 36h6v12h-6V36ZM4 52h56v6H4v-6Z"/></g><defs><clipPath id="clip0_4055_3984"><path fill="currentcolor" d="M0 0h64v64H0z"/></clipPath></defs></symbol><symbol id="brand_property_2_chart_3" viewBox="0 0 64 64"><g clip-path="url(#clip0_4055_3985)" fill="currentcolor"><path d="M9.96 7H4v44h5.96V7ZM59.6 51H9.96v6H59.6v-6ZM40.58 40l-13.9-11.92L16.96 37H13v-4l13.49-12.96 14.09 12.08 15.56-13.34 3.86.28v4.28L40.58 40Z"/></g><defs><clipPath id="clip0_4055_3985"><path fill="currentcolor" d="M0 0h64v64H0z"/></clipPath></defs></symbol><symbol id="brand_property_2_data" viewBox="0 0 64 64"><g clip-path="url(#clip0_4055_3986)" fill="currentcolor"><path d="M60 57H4V7h50v6H10v38h44V13h6v44Z"/><path d="M23 32h-6v13h6V32ZM35 21h-6v24h6V21ZM47 27h-6v18h6V27Z"/></g><defs><clipPath id="clip0_4055_3986"><path fill="currentcolor" d="M0 0h64v64H0z"/></clipPath></defs></symbol><symbol id="brand_property_2_centralized" viewBox="0 0 64 64"><g clip-path="url(#clip0_4055_3987)" fill="currentcolor"><path d="M31.97 59.993c-2.02 0-4.05-.22-6.02-.66l1.3-5.86c2.74.61 5.61.68 8.41.21l.32-.05.37 2.98.8 2.89-.31.07c-1.61.28-3.25.43-4.87.43v-.01Zm15.08-4.38-3.22-5.059a21.92 21.92 0 0 0 6.2-5.94l4.91 3.44a27.911 27.911 0 0 1-7.88 7.55l-.01.01Zm-31.1-.68a27.813 27.813 0 0 1-7.56-7.879l5.06-3.23a22.02 22.02 0 0 0 5.94 6.19l-3.44 4.92Zm43.39-16.857-5.86-1.3c.35-1.56.52-3.15.52-4.74 0-1.28-.11-2.57-.34-3.83l-.02-.1 5.92-1 .02.1c.28 1.58.42 3.22.42 4.85 0 2.03-.22 4.06-.66 6.05v-.03Zm-54.91-1.22c-.29-1.62-.43-3.26-.43-4.89 0-2.01.22-4.03.65-5.999l5.86 1.29a21.913 21.913 0 0 0-.18 8.489l.02.12-5.92.99Zm46.1-16.728a21.887 21.887 0 0 0-5.95-6.18l3.43-4.919c3.03 2.12 5.58 4.76 7.57 7.86l-5.05 3.239Zm-36.57-.72-4.92-3.43c2.12-3.03 4.77-5.58 7.87-7.569l3.23 5.05a21.92 21.92 0 0 0-6.19 5.949h.01Zm22.76-8.91c-2.78-.609-5.69-.669-8.52-.17L27.08 4.44h.06c3.64-.65 7.33-.57 10.87.21l-1.29 5.859v-.01ZM33.948 45.253c5.297-.458 9.042-3.114 9.052-7.88.01-4.069-2.063-6.456-9.012-7.83l.02-6.058c1.812.547 2.733 1.8 2.824 3.9l5.477.02c-.16-4.726-2.984-7.84-8.281-8.567v-3.83H30.683l-.74-.01v3.75c-5.188.488-8.322 3.393-8.332 7.293-.01 4.368 2.503 6.726 8.271 7.95l-.02 6.556c-1.892-.497-3.254-1.691-3.314-4.298L21 36.23c.02 5.044 3.355 8.258 8.842 8.944v3.811h3.465l.62.01v-3.74h.02Zm-7.12-20.127c0-1.433 1.081-2.437 2.824-2.865l-.02 5.92c-2.303-.777-2.804-1.761-2.804-3.065v.01Zm10.945 13.272c0 1.83-1.382 2.975-3.565 3.383l.02-6.547c2.934.846 3.555 1.781 3.545 3.164Z"/></g><defs><clipPath id="clip0_4055_3987"><path fill="currentcolor" d="M0 0h64v64H0z"/></clipPath></defs></symbol><symbol id="brand_property_2_safe" viewBox="0 0 64 64"><g clip-path="url(#clip0_4055_3988)" fill="currentcolor"><path d="M10 7v6H4v44h15.5l4.9-4.8h15.3l5 4.8H60V7H10Zm44 44h-6.8l-5-4.8H22L17.1 51H10V13h44v38Z"/><path d="M23 22h-6v6h6v-6ZM23 32h-6v6h6v-6ZM33 22h-6v6h6v-6ZM48 29h-4v8h4v-8ZM33 32h-6v6h6v-6Z"/><path d="M46 31a4 4 0 1 0 0-8 4 4 0 0 0 0 8Z"/></g><defs><clipPath id="clip0_4055_3988"><path fill="currentcolor" d="M0 0h64v64H0z"/></clipPath></defs></symbol><symbol id="brand_property_2_approve_2" viewBox="0 0 64 64"><g clip-path="url(#clip0_4055_3989)" fill="currentcolor"><path d="M10 28H4v29h11v-6H9.9l.1-23Z"/><path d="M56.9 23.1H43.7V9.9L41.3 7l-8.4.1L23 26h-2v-4H10v6h5v23h6V32h6l9.7-19.1h.9v13.3l4.1 2.8h12.2v8.5L45 51H21v6h27.5L60 39.2V26.5l-3.1-3.4Z"/></g><defs><clipPath id="clip0_4055_3989"><path fill="currentcolor" d="M0 0h64v64H0z"/></clipPath></defs></symbol><symbol id="brand_property_2_percentage" viewBox="0 0 64 64"><g clip-path="url(#clip0_4055_3990)" fill="currentcolor"><path d="M52 57 7 12V7h5l45 45v5h-5ZM27 57H7V37h20v20Zm-14-6h8v-8h-8v8ZM57 27H37V7h20v20Zm-14-6h8v-8h-8v8Z"/></g><defs><clipPath id="clip0_4055_3990"><path fill="currentcolor" d="M0 0h64v64H0z"/></clipPath></defs></symbol><symbol id="brand_property_2_transparency_1" viewBox="0 0 64 64"><g clip-path="url(#clip0_4055_3991)" fill="currentcolor"><path d="M42 59H5V22h37v37Zm-31-6h25V28H11v25ZM59 40h-8v-4h4v-4h4v8Z"/><path d="M44.6 36h-6.3v4h6.3v-4ZM32 40h-8v-8h4v4h4v4ZM28 19.3h-4v6.3h4v-6.3ZM28 13h-4V5h8v4h-4v4ZM44.6 5h-6.3v4h6.3V5ZM59 13h-4V9h-4V5h8v8ZM59 19.3h-4v6.3h4v-6.3Z"/></g><defs><clipPath id="clip0_4055_3991"><path fill="currentcolor" d="M0 0h64v64H0z"/></clipPath></defs></symbol><symbol id="brand_property_2_heart" viewBox="0 0 64 64"><g clip-path="url(#clip0_4055_3992)"><path d="M59.555 20.61c-1.7-8.339-9.838-13.879-18.147-12.359-4.169.77-7.328 2.54-9.418 5.23-2.09-2.69-5.239-4.47-9.418-5.23-8.299-1.52-16.447 4.02-18.137 12.34-2.71 12.95 8.099 22.93 8.519 23.31L27.96 58 32 53l4.04 5 14.966-14.06c.46-.42 11.268-10.39 8.559-23.33h-.01ZM46.967 39.42 32 52.92 16.993 39.38c-.09-.08-8.668-8.07-6.689-17.54 1.05-5.13 6.079-8.54 11.208-7.59 5.319.98 7.489 3.67 7.489 9.28v1.01h5.998v-1.01c0-5.62 2.17-8.31 7.489-9.28 5.129-.94 10.158 2.46 11.208 7.61 1.98 9.46-6.599 17.45-6.719 17.56h-.01Z" fill="currentcolor"/></g><defs><clipPath id="clip0_4055_3992"><path fill="currentcolor" d="M0 0h64v64H0z"/></clipPath></defs></symbol><symbol id="brand_property_2_automation" viewBox="0 0 64 64"><g clip-path="url(#clip0_4055_3993)" fill="currentcolor"><path d="M54 31.95c0 12.079-9.9 22.03-22 21.96-2.16-.01-5.5-.498-8-1.496v6.388c2.5.799 5.2 1.198 8 1.198 15.4 0 28-12.578 28-27.95l-3-1.996-3 1.996v-.1ZM35.1 4.2C34.15 4.04 33 4 32 4 16.6 4 4 16.578 4 31.95l3 1.997 3-1.997c0-12.078 9.9-21.87 22-21.96 2.31-.02 2.35 0 3 0M12 57.011c-4.3-.398-7-2.888-7-6.873h4c0 2.192 1.3 3.088 3 3.387v-4.98c-4.6-.898-6.6-2.69-6.6-6.177 0-3.487 2.5-5.38 6.6-5.579V34h2v2.889c4.2.398 6.4 2.889 6.5 6.575h-4c0-1.794-.9-2.79-2.5-3.088v4.681c5.4.997 7 2.89 7 6.077 0 3.188-2.9 5.778-7 6.077V60h-2v-2.989Zm0-12.452v-4.283c-1.4.2-2.4.896-2.4 2.092 0 1.195.4 1.693 2.4 2.191Zm4.7 6.675c0-.997-.4-1.694-2.7-2.291v4.681c1.7-.199 2.7-.996 2.7-2.39ZM44.2 18.2H41v-2.3h2.4c-.7-1.5-1.2-2.7-1.2-4.6 0-3.7 3-6.3 7.2-6.3s7.4 2.8 7.4 7.5h-4.3c0-2.3-1.2-3.5-3.1-3.5-1.9 0-2.9 1-2.9 2.6s.7 2.9 1.4 4.3H54v2.3h-5.4c.2 1.7-.5 3.5-1.8 4.8H57v4H41.5v-3.8c2.5-1.4 3.2-3.1 2.8-5h-.1Z"/></g><defs><clipPath id="clip0_4055_3993"><path fill="currentcolor" d="M0 0h64v64H0z"/></clipPath></defs></symbol><symbol id="brand_property_2_wallet" viewBox="0 0 64 64"><g clip-path="url(#clip0_4055_3994)" fill="currentcolor"><path d="M10.589 22 7 17.356 52.537 4 55 19.709l-5.96.976-1.398-8.938L10.589 22Z"/><path d="m53.91 57-41.35-.14c-4.73-.02-8.57-3.91-8.55-8.67L4.11 17l47.35.16c4.73.02 8.57 3.91 8.55 8.67l-.08 25.15-5.99-.02.08-25.15c0-1.44-1.15-2.61-2.58-2.62l-41.35-.14-.08 25.15c0 1.44 1.15 2.61 2.58 2.62l41.35.14-.02 6.04h-.01Z"/><path d="M45 41a4 4 0 1 0 0-8 4 4 0 0 0 0 8Z"/></g><defs><clipPath id="clip0_4055_3994"><path fill="currentcolor" d="M0 0h64v64H0z"/></clipPath></defs></symbol><symbol id="brand_property_2_exchange" viewBox="0 0 64 64"><g clip-path="url(#clip0_4055_3995)" fill="currentcolor"><path d="M47 51H11v6h36v-6ZM60 28c-4.21 0-7-4.98-7-7h-6c0 2.02-2.79 7-7 7v6c2.68 0 5.04-.93 7-2.35V51h6V31.65c1.96 1.42 4.32 2.35 7 2.35v-6ZM53 7H17v6h36V7ZM17 43c0-2.02 2.79-7 7-7v-6c-2.68 0-5.04.93-7 2.35V13h-6v19.35C9.04 30.93 6.68 30 4 30v6c4.21 0 7 4.98 7 7h6Z"/></g><defs><clipPath id="clip0_4055_3995"><path fill="currentcolor" d="M0 0h64v64H0z"/></clipPath></defs></symbol><symbol id="brand_property_2_shield_2" viewBox="0 0 64 64"><g clip-path="url(#clip0_4055_3996)"><mask id="mask0_4055_3996" style="mask-type:luminance" maskUnits="userSpaceOnUse" x="0" y="0" width="64" height="64"><path d="M64 0H0v64h64V0Z" fill="currentcolor"/></mask><g mask="url(#mask0_4055_3996)" fill="currentcolor"><path d="M51 5H13v6h38V5ZM51 11v29.47L32 51.58 13 40.47V11H7v32.53L32 59l23.76-14.57 1.24-.9V11h-6Z"/><path d="m30.14 29.93-4.57-4.47L21 29.93l9.02 8.7.12.12L45 24.1l-4.44-4.35-10.42 10.18Z"/></g></g><defs><clipPath id="clip0_4055_3996"><path fill="currentcolor" d="M0 0h64v64H0z"/></clipPath></defs></symbol><symbol id="brand_property_2_lock" viewBox="0 0 64 64"><g clip-path="url(#clip0_4055_3997)" fill="currentcolor"><path d="M51 54H13v6h38v-6ZM49 26v-6.59C49 10.91 42.09 4 33.59 4h-3.18C21.91 4 15 10.91 15 19.41V26H7v28h6V32h38v22h6V26h-8Zm-28 0v-6.59c0-5.19 4.22-9.41 9.41-9.41h3.18c5.19 0 9.41 4.22 9.41 9.41V26H21Z"/><path d="M32 38c-2.21 0-4 1.79-4 4 0 1.48.81 2.75 2 3.45V50h4v-4.55c1.19-.69 2-1.97 2-3.45 0-2.21-1.79-4-4-4Z"/></g><defs><clipPath id="clip0_4055_3997"><path fill="currentcolor" d="M0 0h64v64H0z"/></clipPath></defs></symbol><symbol id="brand_property_2_lock_2" viewBox="0 0 64 64"><g clip-path="url(#clip0_4055_3998)" fill="currentcolor"><path d="M51 54H13v6h38v-6ZM21 26v-6.59c0-5.19 4.22-9.41 9.41-9.41h3.18c5.05 0 9.18 4 9.4 9h6c-.21-8.31-7.04-15-15.4-15h-3.18C21.91 4 15 10.91 15 19.41V26H7v28h6V32h38v22h6V26H21Z"/><path d="m30.14 43.18-4.57-4.47L21 43.18l9.02 8.7.12.12L45 37.35 40.56 33 30.14 43.18Z"/></g><defs><clipPath id="clip0_4055_3998"><path fill="currentcolor" d="M0 0h64v64H0z"/></clipPath></defs></symbol><symbol id="brand_property_2_lock_3" viewBox="0 0 64 64"><g clip-path="url(#clip0_4055_3999)"><path d="M49 26v-6.59C49 10.91 42.09 4 33.59 4h-3.18C21.91 4 15 10.91 15 19.41V26H7v28h6V32h17.45v1.61c-3.74.34-6 2.36-6.01 5.08 0 3.04 1.81 4.68 5.97 5.53v4.56c-1.38-.34-2.37-1.18-2.41-2.99h-4c.01 3.5 2.42 5.73 6.39 6.21v2H13v6h38v-6H33.34v-1.94c3.83-.32 6.53-2.17 6.54-5.48 0-2.83-1.49-4.5-6.5-5.45v-4.22c1.32.38 1.99 1.25 2.05 2.72h3.95c-.11-3.27-2.15-5.44-5.98-5.95v-1.67H51v22h6v-28h-8V26ZM30.23 40.18c-1.66-.54-2.03-1.22-2.02-2.13 0-1 .78-1.7 2.04-1.99v4.12h-.02Zm3.31 4.9c2.12.59 2.56 1.24 2.56 2.2 0 1.27-1 2.07-2.58 2.36v-4.56h.02ZM21 26v-6.59c0-5.19 4.22-9.41 9.41-9.41h3.18c5.19 0 9.41 4.22 9.41 9.41V26H21Z" fill="currentcolor"/></g><defs><clipPath id="clip0_4055_3999"><path fill="currentcolor" d="M0 0h64v64H0z"/></clipPath></defs></symbol><symbol id="brand_property_2_yield" viewBox="0 0 64 64"><g clip-path="url(#clip0_4055_4000)" fill="currentcolor"><path d="M51.125 18 40.15 30.33 36.343 25H19.112v-3H9.727v6H4v29h15.112v-3H41.11L60 32.12V18h-8.875Zm-38.01 33H9.997V28h3.118v23Zm40.888-21.12L38.362 48h-19.25V31h14.142l.72 1h-4.797v6H40.95l.06-.06L54.003 24v5.88ZM28 14a5 5 0 1 0 0-10 5 5 0 0 0 0 10Z"/><path d="M38 23a5 5 0 1 0 0-10 5 5 0 0 0 0 10Z"/></g><defs><clipPath id="clip0_4055_4000"><path fill="currentcolor" d="M0 0h64v64H0z"/></clipPath></defs></symbol><symbol id="brand_property_2_box" viewBox="0 0 64 64"><g clip-path="url(#clip0_4055_4001)" fill="currentcolor"><path d="m32 25.357-15.07-6.613-7.05-3.086L7 17.176V47.93l22 10.623L32 60l3-1.457v-31.87l-3-1.316Zm-3 26.502-16-7.728V23.598l16 7.025v21.236Z"/><path d="M54.12 15.658 32 4 9.88 15.658 7 17.176v3.799l6 2.623 16 7.025 3 1.317 3-1.317 16-7.015 6-2.633v-3.8l-2.88-1.517Zm-37.19 3.086L32 10.814l15.07 7.93L32 25.357l-15.07-6.613Z"/><path d="m54.12 15.658-7.05 3.086L32 25.357l-3 1.316v31.88L32 60l3-1.457 22-10.644V17.176l-2.88-1.518ZM51 44.111l-16 7.748V30.623l16-7.025V44.11Z"/></g><defs><clipPath id="clip0_4055_4001"><path fill="currentcolor" d="M0 0h64v64H0z"/></clipPath></defs></symbol><symbol id="brand_property_2_search" viewBox="0 0 64 64"><g clip-path="url(#clip0_4055_4002)" fill="currentcolor"><path d="M31.09 4H31C16.15 4 4.05 16.05 4 30.91c-.02 7.21 2.76 14 7.85 19.12 5.08 5.12 11.85 7.95 19.06 7.97H31c5.94 0 11.59-1.9 16.24-5.43l-4.4-4.23A20.875 20.875 0 0 1 31 52h-.07C19.35 51.96 9.96 42.51 10 30.93 10.04 19.38 19.45 10 31 10h.07c11.58.04 20.97 9.49 20.93 21.07-.02 5-1.79 9.61-4.74 13.21l4.26 4.26c4.18-4.86 6.46-10.98 6.48-17.45C58.05 16.2 45.98 4.05 31.09 4ZM60 57l-4 4-8.76-8.43c.98-.74 1.91-1.54 2.79-2.42.52-.52 1.02-1.05 1.49-1.61L60 57Z"/></g><defs><clipPath id="clip0_4055_4002"><path fill="currentcolor" d="M0 0h64v64H0z"/></clipPath></defs></symbol><symbol id="brand_property_2_finality" viewBox="0 0 64 64"><g clip-path="url(#clip0_4055_4003)" fill="currentcolor"><path d="M27 57H5V35h22v22Zm-16-6h10V41H11v10ZM42 29H20V7h22v22Zm-16-6h10V13H26v10Z"/><path d="M15 35h-4V17h10v4h-6v14ZM51 35h-4V21h-6v-4h10v18ZM44.14 45.18l-4.57-4.47L35 45.18l9.02 8.7.12.12L59 39.35 54.56 35 44.14 45.18Z"/></g><defs><clipPath id="clip0_4055_4003"><path fill="currentcolor" d="M0 0h64v64H0z"/></clipPath></defs></symbol><symbol id="brand_property_2_decentralized" viewBox="0 0 64 64"><g clip-path="url(#clip0_4055_4004)" fill="currentcolor"><path d="M29 57H7V35h22v22Zm-16-6h10V41H13v10ZM44 29H22V7h22v22Zm-16-6h10V13H28v10ZM60 57H38V35h22v22Zm-16-6h10V41H44v10Z"/><path d="M17 35h-4V17h10v4h-6v14ZM53 35h-4V21h-6v-4h10v18Z"/></g><defs><clipPath id="clip0_4055_4004"><path fill="currentcolor" d="M0 0h64v64H0z"/></clipPath></defs></symbol><symbol id="brand_property_2_attachment_1" viewBox="0 0 64 64"><g clip-path="url(#clip0_4055_4005)" fill="currentcolor"><path d="m44.14 50.18-4.57-4.47L35 50.18l9.02 8.7.12.12L59 44.35 54.56 40 44.14 50.18ZM19.2 55c-3.64 0-7.27-1.38-10.04-4.15-5.54-5.54-5.54-14.55 0-20.09l7.2-7.2c5.54-5.54 14.55-5.54 20.09 0l-4.24 4.24c-3.2-3.2-8.4-3.2-11.6 0l-7.2 7.2c-3.2 3.2-3.2 8.4 0 11.6a8.146 8.146 0 0 0 5.8 2.4c2.19 0 4.25-.85 5.8-2.4l1.44-1.44 4.24 4.24-1.44 1.44a14.158 14.158 0 0 1-10.04 4.15l-.01.01Z"/><path d="M33.6 40.6c-3.64 0-7.27-1.38-10.04-4.15l4.24-4.24c3.2 3.2 8.4 3.2 11.6 0l7.2-7.2c3.2-3.2 3.2-8.4 0-11.6-3.2-3.2-8.4-3.2-11.6 0l-1.44 1.44-4.24-4.24 1.44-1.44c5.54-5.54 14.55-5.54 20.09 0 5.54 5.54 5.54 14.55 0 20.09l-7.2 7.2a14.158 14.158 0 0 1-10.04 4.15l-.01-.01Z"/></g><defs><clipPath id="clip0_4055_4005"><path fill="currentcolor" d="M0 0h64v64H0z"/></clipPath></defs></symbol><symbol id="brand_property_2_attachment_2" viewBox="0 0 64 64"><g clip-path="url(#clip0_4055_4006)" fill="currentcolor"><path d="M20.22 59c-4.06 0-7.89-1.58-10.76-4.46-5.93-5.93-5.93-15.59 0-21.52l7.85-7.85c2.87-2.87 6.7-4.46 10.76-4.46s7.89 1.58 10.76 4.46l-4.24 4.24a9.169 9.169 0 0 0-6.52-2.7c-2.46 0-4.78.96-6.52 2.7l-7.85 7.85c-3.59 3.59-3.59 9.44 0 13.04a9.168 9.168 0 0 0 6.52 2.7c2.46 0 4.78-.96 6.52-2.7l1.57-1.57 4.24 4.24-1.57 1.57C28.11 57.41 24.28 59 20.22 59Z"/><path d="M35.93 43.28c-3.9 0-7.79-1.48-10.76-4.45l4.24-4.24c3.59 3.59 9.44 3.59 13.04 0l7.85-7.85a9.168 9.168 0 0 0 2.7-6.52c0-2.46-.96-4.78-2.7-6.52a9.168 9.168 0 0 0-6.52-2.7c-2.46 0-4.78.96-6.52 2.7l-1.57 1.57-4.24-4.24 1.57-1.57C35.9 6.59 39.72 5 43.78 5s7.89 1.58 10.76 4.46c2.88 2.87 4.46 6.7 4.46 10.76s-1.58 7.89-4.46 10.76l-7.85 7.85a15.156 15.156 0 0 1-10.76 4.45Z"/></g><defs><clipPath id="clip0_4055_4006"><path fill="currentcolor" d="M0 0h64v64H0z"/></clipPath></defs></symbol><symbol id="brand_property_2_defi_1" viewBox="0 0 64 64"><g clip-path="url(#clip0_4055_4007)" fill="currentcolor"><path d="M10.01 31.94c.02-5.88 2.33-11.39 6.49-15.54 4.15-4.12 9.65-6.39 15.5-6.39h.07c5.88.02 11.39 2.33 15.54 6.49 4.14 4.17 6.41 9.7 6.39 15.58l6 .02c.02-7.48-2.87-14.52-8.14-19.83C46.59 6.96 39.57 4.03 32.09 4H32C16.6 4 4.05 16.5 4 31.91 3.95 47.35 16.47 59.95 31.91 60l.02-6c-5.88-.02-11.39-2.33-15.54-6.49-4.15-4.16-6.41-9.7-6.39-15.58l.01.01Z"/><path d="m45.158 49.055-3.59-3.526L38 48.986l7.027 6.916v-.01l.11.108L57 44.487 53.461 41l-8.303 8.055ZM20 36.099h2.445C24.271 40.722 28.745 44 33.97 44c3.4 0 6.693-1.429 9.031-3.926l-3.471-3.303a7.529 7.529 0 0 1-5.56 2.414 7.585 7.585 0 0 1-6.108-3.098h7.97v-3.602h-9.425c-.036-.325-.072-.649-.072-.985 0-.456.048-.913.132-1.345h9.364v-3.602h-7.682a7.599 7.599 0 0 1 5.833-2.738c1.754 0 3.472.612 4.832 1.73l3.018-3.723A12.414 12.414 0 0 0 33.98 19c-5.094 0-9.472 3.11-11.38 7.54h-2.59v3.603h1.647c-.048.444-.071.889-.071 1.345 0 .336.023.66.047.985h-1.622v3.602l-.012.024Z"/></g><defs><clipPath id="clip0_4055_4007"><path fill="currentcolor" d="M0 0h64v64H0z"/></clipPath></defs></symbol><symbol id="brand_property_2_coins" viewBox="0 0 64 64"><g clip-path="url(#clip0_4055_4008)" fill="currentcolor"><path d="M47.2 11.8C44.08 8.67 33.7-1.01 28.77 2.93c-.13.1-.25.2-.37.32L22.25 9.4c-.12.12-.22.24-.32.37-3.53 4.42 3.88 13.22 7.71 17.24.44.46.84.87 1.16 1.19 1.19 1.19 3.45 3.35 6.05 5.33.7.54 1.43 1.06 2.17 1.55C42.6 37.44 46.46 39 49 37.24c.08-.05.15-.11.23-.17.13-.1.25-.2.37-.32l6.15-6.15c.12-.12.22-.24.32-.37 3.94-4.93-5.74-15.31-8.87-18.43Zm-1.62 18.02-1.4 1.41-.11.1c-1.31-.71-3.07-1.86-5.12-3.55a54.375 54.375 0 0 1-4.05-3.68c-3.78-3.78-6.09-7.05-7.23-9.17l.1-.11 1.8-1.79c2.33 3.78 5.75 7.39 7.38 9.02s5.24 5.05 9.02 7.38l-.38.39h-.01Zm4.65-4.64c-2.13-1.14-5.4-3.45-9.18-7.23-3.78-3.78-6.09-7.05-7.23-9.18l.11-.1c2.12 1.14 5.39 3.45 9.17 7.23 3.78 3.78 6.09 7.05 7.23 9.17l-.1.11Z"/><path d="M48.97 43c-.72-6.49-15.4-7-19.97-7-4.57 0-19.25.51-19.97 7-.02.16-.03.33-.03.5v9c0 .17.01.34.03.5.72 6.49 15.4 7 19.97 7 4.57 0 19.25-.51 19.97-7 .02-.16.03-.33.03-.5v-9c0-.17-.01-.34-.03-.5ZM17 40.8c4.47 1.06 9.61 1.2 12 1.2 2.39 0 7.53-.14 12-1.2v2.78C38.61 44.3 34.53 45 29 45s-9.61-.7-12-1.42V40.8Zm24 11.78C38.61 53.3 34.53 54 29 54s-9.61-.7-12-1.42V49.8c.61.15 1.23.27 1.85.38.4.07.79.14 1.19.2.04 0 .08.01.12.02.78.11 1.57.21 2.33.28a66.455 66.455 0 0 0 13.02 0c.76-.07 1.55-.17 2.33-.28.04-.01.08-.02.12-.02.4-.06.8-.13 1.19-.2.62-.11 1.24-.23 1.85-.38v2.78Z"/><path d="M48.97 34c-.2-1.82-1.51-3.18-3.38-4.18h-.01l-1.4 1.41-.11.1c-1.31-.71-3.07-1.86-5.12-3.55-3.53-.61-7.15-.75-9.31-.77C29.41 27 29.2 27 29 27c-4.57 0-19.25.51-19.97 7-.02.16-.03.33-.03.5v9c0 .17.01.34.03.5.34 3.1 3.88 4.84 7.97 5.8.61.15 1.23.27 1.85.38.4.07.79.14 1.19.2.04 0 .08.01.12.02.78.11 1.57.21 2.33.28a66.455 66.455 0 0 0 13.02 0c.76-.07 1.55-.17 2.33-.28.04-.01.08-.02.12-.02.4-.06.8-.13 1.19-.2.62-.11 1.24-.23 1.85-.38 4.09-.96 7.63-2.7 7.97-5.8.02-.16.03-.33.03-.5v-9c0-.17-.01-.34-.03-.5ZM17 34.42C19.39 33.7 23.47 33 29 33c3.08 0 5.71.22 7.85.53 1.7.25 3.09.57 4.15.89v.16c-.57.17-1.23.34-1.98.5-2.42.51-5.8.92-10.02.92-5.53 0-9.61-.7-12-1.42v-.16Zm24 9.16C38.61 44.3 34.53 45 29 45s-9.61-.7-12-1.42V40.8c4.47 1.06 9.61 1.2 12 1.2 2.39 0 7.53-.14 12-1.2v2.78Z"/></g><defs><clipPath id="clip0_4055_4008"><path fill="currentcolor" d="M0 0h64v64H0z"/></clipPath></defs></symbol><symbol id="brand_property_2_coins_2" viewBox="0 0 64 64"><g clip-path="url(#clip0_4055_4009)" fill="currentcolor"><path d="M6.471 31.953c0-1.674.184-3.318.529-4.933L3.046 27 3 32.98l3.494.02c-.023-.349-.023-.698-.023-1.047ZM3.02 44v6h10.57a27.97 27.97 0 0 1-3.88-6H3.02ZM15.55 11.9c.69-.68 1.43-1.32 2.19-1.9H3.02v6h9.04c1.01-1.46 2.18-2.83 3.49-4.1ZM36.63 30.05l.02-4.8c1.48.43 2.24 1.43 2.31 3.1h4.48c-.13-3.74-2.44-6.22-6.77-6.8v-3.04h-3.35v2.98c-4.24.39-6.8 2.7-6.81 5.8-.02 3.47 2.05 5.34 6.76 6.31v5.2c-1.56-.39-2.68-1.35-2.72-3.42h-4.54c.02 4 2.74 6.54 7.24 7.1v3.02H36.61v-2.97c4.34-.37 7.41-2.47 7.42-6.26 0-3.23-1.68-5.12-7.37-6.22h-.03Zm-3.56-1.07c-1.89-.62-2.3-1.4-2.3-2.43 0-1.14.88-1.93 2.31-2.27v4.7h-.01Zm3.73 10.79.02-5.2c2.4.67 2.9 1.42 2.9 2.51 0 1.46-1.13 2.36-2.92 2.69Z"/><path d="M35.1 7h-.09c-2.78 0-5.46.46-7.96 1.31a24.58 24.58 0 0 0-7.04 3.71c-.84.62-1.63 1.3-2.38 2.03-.64.62-1.24 1.27-1.81 1.95-2.6 3.11-4.46 6.85-5.3 10.97-.33 1.6-.51 3.26-.51 4.95 0 .35.01.7.02 1.05.15 3.98 1.25 7.73 3.06 11.03 1.19 2.16 2.69 4.13 4.43 5.84.06.05.11.11.17.16a24.6 24.6 0 0 0 9.2 5.63c2.53.88 5.23 1.36 8.04 1.37h.09C48.76 57 59.95 45.84 60 32.09 60.04 18.3 48.86 7.05 35.1 7Zm1.2 42.9c-.41.04-.84.05-1.26.05h-.08c-2.89-.01-5.63-.7-8.04-1.94-5.87-2.95-9.89-9.06-9.86-16.06.02-7.01 4.08-13.09 9.96-16.01 2.41-1.21 5.13-1.89 8-1.89h.05c.45 0 .91.01 1.34.06 9.27.71 16.57 8.51 16.54 17.95-.03 9.45-7.39 17.19-16.65 17.84Z"/><path d="m35.98 46.91-.36.03h.97v-.08c-.16.02-.33.04-.5.05h-.11ZM33.2 46.93h1.27c-.43-.01-.85-.04-1.27-.09v.09Z"/></g><defs><clipPath id="clip0_4055_4009"><path fill="currentcolor" d="M0 0h64v64H0z"/></clipPath></defs></symbol><symbol id="brand_property_2_coins_3" viewBox="0 0 64 64"><g clip-path="url(#clip0_4055_4010)" fill="currentcolor"><path d="M43.96 15.38C43.28 9.6 33.6 7 24 7 14.4 7 4.72 9.6 4.04 15.38c-.03.22-.04.43-.04.66v11.92c0 .23.01.44.04.66.59 4.97 7.83 7.59 15.96 8.23 1.32.1 2.66.15 4 .15 1.27 0 2.54-.05 3.79-.14 5.2-.38 10.07-1.57 13.08-3.68 1.75-1.21 2.87-2.72 3.09-4.56.03-.22.04-.43.04-.66V16.04c0-.23-.01-.44-.04-.66Zm-33.58.61c1.49-1.09 6.15-2.82 13.62-2.82 7.47 0 12.13 1.73 13.62 2.82v.1c-1.49 1.09-6.15 2.83-13.62 2.83-7.47 0-12.13-1.74-13.62-2.83v-.1Zm12.75 14.83c-6.96-.13-11.32-1.76-12.75-2.8v-5.07c3.74 1.45 8.69 2.14 13.62 2.14s9.88-.69 13.62-2.14v5.07c-1.49 1.08-6.15 2.81-13.62 2.81-.29 0-.58 0-.87-.01Z"/><path d="M59.96 35.38c-.59-4.97-7.83-7.59-15.96-8.23-1.32-.1-2.66-.15-4-.15-.8 0-1.59.02-2.38.06v.96c-1.49 1.08-6.15 2.81-13.62 2.81-.29 0-.58 0-.87-.01-1.75 1.21-2.87 2.72-3.09 4.56-.03.22-.04.43-.04.66v11.92c0 .23.01.44.04.66C20.72 54.4 30.4 57 40 57c9.6 0 19.28-2.6 19.96-8.38.03-.22.04-.43.04-.66V36.04c0-.23-.01-.44-.04-.66Zm-6.34 12.64c-1.49 1.08-6.15 2.81-13.62 2.81-7.47 0-12.13-1.73-13.62-2.81v-5.07c3.74 1.45 8.69 2.14 13.62 2.14s9.88-.69 13.62-2.14v5.07Zm0-11.93c-1.49 1.09-6.15 2.83-13.62 2.83-5.85 0-9.98-1.07-12.21-2.06-.62-.26-1.09-.53-1.41-.77v-.1c1.49-1.09 6.15-2.82 13.62-2.82.29 0 .58 0 .87.01 6.96.13 11.32 1.76 12.75 2.81v.1Z"/></g><defs><clipPath id="clip0_4055_4010"><path fill="currentcolor" d="M0 0h64v64H0z"/></clipPath></defs></symbol><symbol id="brand_property_2_stable" viewBox="0 0 64 64"><g clip-path="url(#clip0_4055_4011)" fill="currentcolor"><path d="M56.44 38.86c-.79-5.46-9.59-8.46-19.24-9.32v5.95c8.2.78 12.66 3.07 13.33 4.19-.28.47-1.2 1.13-2.77 1.8-1.36.57-3.2 1.17-5.52 1.65-2.91.59-6.57 1.01-10.98 1.01s-8.07-.42-10.98-1.01c-2.32-.48-4.16-1.07-5.52-1.65-1.57-.67-2.5-1.34-2.77-1.8.66-1.12 5.13-3.4 13.33-4.18v-5.96c-9.66.85-18.45 3.86-19.24 9.32h-.05v.5c-.02.11-.02.22-.02.33 0 .11 0 .22.02.33v9.17c-.02.14-.02.28-.02.42 0 .11 0 .22.02.33v.17c.59 6.8 13.34 9.91 25.23 9.91s23.37-2.8 25.05-8.92h.21V38.88h-.07l-.01-.02ZM50.57 49.7c-.61.81-3.05 2.14-7.25 3.1-.29.07-.58.14-.89.2-2.95.62-6.69 1.05-11.17 1.05-6.38 0-11.21-.87-14.44-1.89-2.81-.88-4.44-1.87-4.85-2.52V46.7c.86.41 1.79.77 2.79 1.09 4.69 1.57 10.7 2.3 16.5 2.3 5.8 0 11.81-.73 16.5-2.3 1-.32 1.94-.68 2.81-1.1v3.01Z"/><path d="M53.37 7.05c-1.32 0-1.81-.25-2.71-.69-1.13-.56-2.68-1.34-5.46-1.34s-4.32.77-5.46 1.34c-.89.45-1.39.69-2.7.69-1.31 0-1.77-.23-2.61-.64V4h-6.14v35.68h5.94v-4.37l-.02-5.97v-2.2c.72.16 1.8.27 2.83.27 2.76 0 4.32-.77 5.46-1.34.9-.45 1.4-.69 2.7-.69 1.3 0 1.81.25 2.71.69 1.06.53 2.5 1.23 4.93 1.32v.02h5.15V7.05h-4.63.01Zm-.52 14.24c-.94-.06-1.42-.29-2.19-.67-1.13-.56-2.68-1.34-5.46-1.34s-4.32.77-5.46 1.34c-.89.45-1.39.69-2.7.69-1.31 0-1.77-.23-2.61-.65V12.9c.73.17 1.58.27 2.61.27 2.76 0 4.32-.77 5.46-1.34.9-.45 1.4-.69 2.7-.69 1.3 0 1.81.25 2.71.69 1.06.53 2.5 1.23 4.93 1.32v8.15l.01-.01Z"/></g><defs><clipPath id="clip0_4055_4011"><path fill="currentcolor" d="M0 0h64v64H0z"/></clipPath></defs></symbol><symbol id="brand_property_2_coins_4" viewBox="0 0 64 64"><g clip-path="url(#clip0_4055_4012)" fill="currentcolor"><path d="M43.96 12.38C43.28 6.6 33.6 4 24 4 14.4 4 4.72 6.6 4.04 12.38c-.03.22-.04.43-.04.66v11.92c0 .23.01.44.04.66C4.72 31.4 14.4 34 24 34c9.6 0 19.28-2.6 19.96-8.38.03-.22.04-.43.04-.66V13.04c0-.23-.01-.44-.04-.66Zm-6.34.61v.1c-1.49 1.09-6.15 2.83-13.62 2.83-7.47 0-12.13-1.74-13.62-2.83v-.1c1.49-1.09 6.15-2.82 13.62-2.82 7.47 0 12.13 1.73 13.62 2.82ZM10.38 25.02v-5.07c3.74 1.45 8.69 2.14 13.62 2.14s9.88-.69 13.62-2.14v5.07c-1.49 1.08-6.15 2.81-13.62 2.81-7.47 0-12.13-1.73-13.62-2.81Z"/><path d="M59.96 38.27c-.68-5.78-10.36-8.38-19.96-8.38-9.6 0-19.28 2.6-19.96 8.38-.03.22-.04.43-.04.66v11.92c0 .23.01.44.04.66.68 5.78 10.36 8.38 19.96 8.38 9.6 0 19.28-2.6 19.96-8.38.03-.22.04-.43.04-.66V38.93c0-.23-.01-.44-.04-.66Zm-6.34.61v.1c-1.49 1.09-6.15 2.83-13.62 2.83-7.47 0-12.13-1.74-13.62-2.83v-.1c1.49-1.09 6.15-2.82 13.62-2.82 7.47 0 12.13 1.73 13.62 2.82ZM26.38 50.91v-5.07c3.74 1.45 8.69 2.14 13.62 2.14s9.88-.69 13.62-2.14v5.07c-1.49 1.08-6.15 2.81-13.62 2.81-7.47 0-12.13-1.73-13.62-2.81ZM15 46C8.93 46 4 41.07 4 35h6c0 2.76 2.24 5 5 5v6ZM60 29h-6c0-2.76-2.24-5-5-5v-6c6.07 0 11 4.93 11 11Z"/></g><defs><clipPath id="clip0_4055_4012"><path fill="currentcolor" d="M0 0h64v64H0z"/></clipPath></defs></symbol><symbol id="brand_property_2_coins_5" viewBox="0 0 64 64"><g clip-path="url(#clip0_4055_4013)" fill="currentcolor"><path d="m59.92 34.08-2.04-11.82a4.27 4.27 0 0 0-.15-.64c-1.65-5.62-11.6-6.53-21.02-4.86-7.52 1.32-14.8 4.3-17.27 8.42-.64 1.05-.95 2.17-.89 3.34 0 .22.04.43.08.65l.38 2.22c2.28.14 5.18.62 8.58 1.66 2.34.72 4.32 1.52 5.99 2.35 2.04-.09 4.14-.33 6.23-.69 1.01-.18 2.02-.39 3.01-.63 3.76-.89 7.29-2.2 9.99-3.85l.87 5.04c-.94.98-3.49 2.6-7.69 3.9-1.51.47-3.25.9-5.19 1.24-7.33 1.29-12.2.38-13.85-.43l-.19-1.13c-.27-.07-.55-.15-.83-.24-2.38-.74-4.4-1.56-6.09-2.4l.83 4.81c.04.22.09.43.15.64.25.84.68 1.56 1.26 2.2.68.24 1.37.47 2.06.68 4.7 1.44 9.62 2.23 13.61 1.92l-.19.63a53.09 53.09 0 0 0 6.97-1.11c8.38-1.94 15.76-5.92 15.47-11.22 0-.22-.03-.43-.07-.66l-.01-.02Zm-21.18-5.51c-1.42.25-2.75.42-3.98.51-5.12.42-8.54-.3-9.86-.97l-.02-.1c.41-.43 1.14-.99 2.18-1.58 2.18-1.26 5.75-2.69 10.71-3.57 7.33-1.3 12.19-.38 13.85.44l.02.09c-1.29 1.34-5.56 3.88-12.89 5.17l-.01.01Z"/><path d="M45.98 39.15c-.3-1.78-1.44-3.51-3.17-5.09-2.03-1.88-4.87-3.58-8.05-4.98-1.72-.76-3.54-1.43-5.38-1.99-.77-.23-1.54-.45-2.32-.65-2.59-.66-5.2-1.12-7.62-1.27-5.48-.37-10.04.75-11.52 4.15-.09.21-.16.4-.23.62L4.23 41.43a7.4 7.4 0 0 0-.15.64C3.05 47.84 11.52 53.18 20.68 56c9.15 2.81 19.13 3.14 21.45-2.24.1-.2.17-.4.23-.62l2.16-7.18 1.3-4.3c.07-.22.12-.43.16-.64.11-.63.11-1.26 0-1.87Zm-32.19-7.39c.91-.32 2.7-.55 5.22-.38 2.28.14 5.18.62 8.58 1.66 2.34.72 4.32 1.52 5.99 2.35 3.41 1.66 5.43 3.35 6.18 4.36l-.03.09c-1.66.59-6.29.91-12.97-1.02-.27-.07-.55-.15-.83-.24-2.38-.74-4.4-1.56-6.09-2.4-3.35-1.66-5.34-3.33-6.08-4.32l.03-.1Zm22.47 19.58c-1.73.6-6.67.9-13.8-1.29-7.11-2.19-11.06-5.22-12.16-6.7l1.47-4.88c2.67 2.13 6.36 3.98 10.29 5.37.68.24 1.37.47 2.06.68 4.7 1.44 9.62 2.23 13.61 1.92l-.19.63-1.29 4.26.01.01ZM10.5 23h4c0-3.58 2.92-6.5 6.5-6.5v-4c-3.58 0-6.5-2.92-6.5-6.5h-4c0 3.58-2.92 6.5-6.5 6.5v4c3.58 0 6.5 2.92 6.5 6.5Zm2-10.86c.66.91 1.45 1.7 2.36 2.36-.91.66-1.7 1.45-2.36 2.36-.66-.91-1.45-1.7-2.36-2.36.91-.66 1.7-1.45 2.36-2.36Z"/></g><defs><clipPath id="clip0_4055_4013"><path fill="currentcolor" d="M0 0h64v64H0z"/></clipPath></defs></symbol><symbol id="brand_property_2_optimized" viewBox="0 0 64 64"><g clip-path="url(#clip0_4055_4014)" fill="currentcolor"><path d="M10 7v6h44v38H10V13H4v44h56V7H10Z"/><path d="M48 17h-8v8h8v-8Z"/><path d="M44 40H29v4h19V29H20v-6h16v-4H16v14h28v7Z"/><path d="m17.33 47.5 3.17-2.82 3.17 2.82 2.66-3-2.82-2.5 2.82-2.5-2.66-3-3.17 2.82-3.17-2.82-2.66 3 2.82 2.5-2.82 2.5 2.66 3Z"/></g><defs><clipPath id="clip0_4055_4014"><path fill="currentcolor" d="M0 0h64v64H0z"/></clipPath></defs></symbol><symbol id="brand_property_2_star" viewBox="0 0 64 64"><g clip-path="url(#clip0_4055_4015)" fill="currentcolor"><path d="M35 5h-6c0 13.23-10.77 24-24 24v6c13.23 0 24 10.77 24 24h6c0-13.23 10.77-24 24-24v-6C45.77 29 35 18.23 35 5Zm-3 40.93A30.192 30.192 0 0 0 18.07 32 30.192 30.192 0 0 0 32 18.07 30.192 30.192 0 0 0 45.93 32 30.192 30.192 0 0 0 32 45.93Z"/><path d="M11.5 22h4c0-3.58 2.92-6.5 6.5-6.5v-4c-3.58 0-6.5-2.92-6.5-6.5h-4c0 3.58-2.92 6.5-6.5 6.5v4c3.58 0 6.5 2.92 6.5 6.5Zm2-10.86c.66.91 1.45 1.7 2.36 2.36-.91.66-1.7 1.45-2.36 2.36-.66-.91-1.45-1.7-2.36-2.36.91-.66 1.7-1.45 2.36-2.36Z"/></g><defs><clipPath id="clip0_4055_4015"><path fill="currentcolor" d="M0 0h64v64H0z"/></clipPath></defs></symbol><symbol id="brand_property_2_transparency" viewBox="0 0 64 64"><g clip-path="url(#clip0_4055_4016)" fill="currentcolor"><path d="M32 44c-6.62 0-12-5.38-12-12s5.38-12 12-12 12 5.38 12 12-5.38 12-12 12Zm0-18c-3.31 0-6 2.69-6 6s2.69 6 6 6 6-2.69 6-6-2.69-6-6-6Z"/><path d="M60 27.9c-1.9-1.79-3.59-4.1-5.38-6.55C49.95 14.96 44.15 7 32 7S13.22 16.15 8.18 22.84C6.66 24.85 5.23 26.75 4 27.9L7.85 32 4 36.1c1.9 1.79 3.59 4.1 5.38 6.55C14.05 49.04 19.85 57 32 57s18.78-9.15 23.82-15.84c1.52-2.01 2.95-3.91 4.18-5.06L56.15 32 60 27.9ZM32 51c-9.11 0-13.33-5.77-17.79-11.89-1.8-2.46-3.66-4.99-5.84-7.11 1.5-1.48 3-3.45 4.59-5.54C17.49 20.46 23.12 13 32.01 13s13.33 5.77 17.79 11.89c1.8 2.46 3.66 4.99 5.84 7.11-1.5 1.48-3 3.45-4.59 5.54C46.52 43.54 40.89 51 32 51Z"/></g><defs><clipPath id="clip0_4055_4016"><path fill="currentcolor" d="M0 0h64v64H0z"/></clipPath></defs></symbol><symbol id="brand_property_2_docs" viewBox="0 0 64 64"><g clip-path="url(#clip0_4055_4017)" fill="currentcolor"><path d="M9 60V4h40.07v6H55v50H9Zm6-50v44h34V10H15Z"/><path d="M45 31H21v4h24v-4ZM45 38H21v4h24v-4ZM45 45H21v4h24v-4ZM23.27 20.91l-2.64-2.59L18 20.86l5.18 5.07.08.07L32 17.56 29.39 15l-6.12 5.91Z"/></g><defs><clipPath id="clip0_4055_4017"><path fill="currentcolor" d="M0 0h64v64H0z"/></clipPath></defs></symbol><symbol id="brand_property_2_approve" viewBox="0 0 64 64"><g clip-path="url(#clip0_4055_4018)" fill="currentcolor"><path d="M57 57V7H12.88v6h38.24v38H12.88V13H7v44h50Z"/><path d="M27.71 44 16.5 32.81l4.28-4.26 6.94 6.92L43.23 20l4.28 4.26L27.72 44h-.01Z"/></g><defs><clipPath id="clip0_4055_4018"><path fill="currentcolor" d="M0 0h64v64H0z"/></clipPath></defs></symbol><symbol id="brand_property_2_cancel" viewBox="0 0 64 64"><g clip-path="url(#clip0_4055_4019)" fill="currentcolor"><path d="M7 7v50h44.12v-6H12.88V13h38.24v38H57V7H7Z"/><path d="m40.7 18.38-9.19 9.38-9.2-9.38-4.15 4.24L27.35 32l-9.19 9.38 4.15 4.24 9.2-9.38 9.19 9.38 4.16-4.24L35.67 32l9.19-9.38-4.16-4.24Z"/></g><defs><clipPath id="clip0_4055_4019"><path fill="currentcolor" d="M0 0h64v64H0z"/></clipPath></defs></symbol><symbol id="brand_property_2_podcast" viewBox="0 0 64 64"><g clip-path="url(#clip0_4055_4020)" fill="currentcolor"><path d="M29 40h-4v6h4v6h6v-6h4v-6H29ZM50 54H14v6h36v-6ZM25 35h14v5h6V4H19v36h6v-5Zm0-4v-3h14v3H25Zm14-21v14H25V10h14Z"/></g><defs><clipPath id="clip0_4055_4020"><path fill="currentcolor" d="M0 0h64v64H0z"/></clipPath></defs></symbol><symbol id="brand_property_2_fav" viewBox="0 0 64 64"><g clip-path="url(#clip0_4055_4021)"><path d="M49.32 59 32 49.77 14.68 59l3.31-19.54L4 25.64l19.34-2.85L32 5l8.66 17.79L60 25.64 46.01 39.46 49.32 59ZM32 43.26l9.74 5.19-1.86-10.99 7.9-7.8-10.91-1.61-4.86-9.99-4.86 9.99-10.91 1.61 7.9 7.8-1.86 10.99 9.74-5.19H32Z" fill="currentcolor"/></g><defs><clipPath id="clip0_4055_4021"><path fill="currentcolor" d="M0 0h64v64H0z"/></clipPath></defs></symbol><symbol id="brand_property_2_home" viewBox="0 0 64 64"><g clip-path="url(#clip0_4055_4022)" fill="currentcolor"><path d="M10 53H4V29.8L27.9 6l4.2 4.2L10 32.3V53Z"/><path d="M60 59H10v-6h44V32.3L31.9 10.2 36.1 6 60 29.8V59Z"/></g><defs><clipPath id="clip0_4055_4022"><path fill="currentcolor" d="M0 0h64v64H0z"/></clipPath></defs></symbol><symbol id="brand_property_2_home_2" viewBox="0 0 64 64"><g clip-path="url(#clip0_4055_4023)" fill="currentcolor"><path d="M28 50.991H10v5.999h18v-5.999ZM49.126 57h-8.212l-1.11-3.859s-.09-.05-.14-.08l-.701-.4c-.32-.18-.63-.36-.98-.57l-3.882.97L30 45.934l2.78-2.89v-2.089L30 38.066l4.101-7.127 3.882.97c.55-.32 1.01-.59 1.54-.89l.27-.16L40.903 27h8.213l1.09 3.859 1.811 1.05 3.882-.97L60 38.066l-2.78 2.89v2.089L60 45.934l-4.101 7.127-3.882-.97c-.19.11-.37.21-.55.32l-.45.26c-.26.15-.52.3-.82.47L49.107 57h.02Zm-5.151-4.069h2.09l.71-2.499 1.291-.75c.34-.19.64-.37.94-.54l.46-.27c.38-.22.77-.44 1.24-.719l.721-.42 2.511.63 1.05-1.82-1.8-1.869v-5.368l1.8-1.87-1.05-1.819-2.5.63-.711-.42c-1.25-.73-1.97-1.14-3.221-1.86l-.72-.41-.71-2.498h-2.091l-.72 2.499-1.691.98c-.73.42-1.35.78-2.23 1.29l-.711.419-2.521-.63-1.05 1.82 1.8 1.869v5.368l-1.8 1.87 1.05 1.819 2.52-.63.711.42c.65.38 1.16.68 1.68.98l.67.39c.271.15.561.32.871.5l.7.41.71 2.488v.01Z"/><path d="M45 46a4 4 0 1 0 0-8 4 4 0 0 0 0 8ZM36 7h-8L4 20.497v30.494h6V22.997l22-11.948 22 11.448v4.499h6v-6.999L36 7Z"/></g><defs><clipPath id="clip0_4055_4023"><path fill="currentcolor" d="M0 0h64v64H0z"/></clipPath></defs></symbol><symbol id="brand_property_2_star_2" viewBox="0 0 64 64"><g clip-path="url(#clip0_4055_4024)" fill="currentcolor"><path d="m25.374 60-10.502-5.19 1.58-8.108-1.8-2.31-8.062-.23L4 32.516l7.161-3.79.64-2.879-4.85-6.599 7.26-9.338 7.352 3.38 2.6-1.28L26.175 4h11.652l2.01 8.009 2.6 1.28 7.352-3.38 7.262 9.338-4.851 6.6.64 2.879L60 32.515l-2.59 11.648-8.062.23-1.8 2.31 1.58 8.108L38.626 60l-5.2-6.319h-2.881L25.344 60h.03Zm2.47-12.338h8.332l4.02 4.89 2.3-1.14-1.22-6.27 5.202-6.678 6.24-.18.57-2.56-5.54-2.93-1.86-8.328 3.75-5.109-1.59-2.05-5.691 2.62-7.511-3.71-1.55-6.198h-2.551l-1.55 6.199-7.512 3.71-5.69-2.62-1.591 2.05 3.75 5.108-1.85 8.329-5.54 2.93.57 2.549 6.24.18 5.201 6.679-1.22 6.268 2.3 1.14 4.021-4.889-.03.01Z"/><path d="M29.142 33.178 24.57 28.71 20 33.179l9.022 8.698.12.12 14.862-14.648L39.564 23 29.141 33.178Z"/></g><defs><clipPath id="clip0_4055_4024"><path fill="currentcolor" d="M0 0h64v64H0z"/></clipPath></defs></symbol></defs></svg>