<svg aria-hidden="true" style="position:absolute;width:0;height:0" width="24" height="24" xmlns="http://www.w3.org/2000/svg" overflow="hidden"><defs><symbol id="arrow-down" viewBox="0 0 24 24"><path d="m12 16-6-6h12l-6 6Z" fill="currentcolor"/></symbol><symbol id="grid" viewBox="0 0 24 24"><path d="M9 19H7v-2h2v2Zm4 0h-2v-2h2v2Zm4 0h-2v-2h2v2ZM7 17H5v-2h2v2Zm4 0H9v-2h2v2Zm4 0h-2v-2h2v2Zm4 0h-2v-2h2v2ZM9 15H7v-2h2v2Zm4 0h-2v-2h2v2Zm4 0h-2v-2h2v2ZM7 13H5v-2h2v2Zm4 0H9v-2h2v2Zm4 0h-2v-2h2v2Zm4 0h-2v-2h2v2ZM9 11H7V9h2v2Zm4 0h-2V9h2v2Zm4 0h-2V9h2v2ZM7 9H5V7h2v2Zm4 0H9V7h2v2Zm4 0h-2V7h2v2Zm4 0h-2V7h2v2ZM9 7H7V5h2v2Zm4 0h-2V5h2v2Zm4 0h-2V5h2v2Z" fill="currentcolor"/></symbol><symbol id="arrow-basic-right" viewBox="0 0 24 24"><path d="M14 19h-2v-2h2v2Zm2-2h-2v-2h2v2Zm2-2h-2v-2h2v2Zm-2-2H4v-2h12v2Zm4 0h-2v-2h2v2Zm-2-2h-2V9h2v2Zm-2-2h-2V7h2v2Zm-2-2h-2V5h2v2Z" fill="currentcolor"/></symbol><symbol id="check" viewBox="0 0 24 24"><path d="M11 17H9v-2h2v2Zm-2-2H7v-2h2v2Zm4 0h-2v-2h2v2Zm-6-2H5v-2h2v2Zm8 0h-2v-2h2v2Zm2-2h-2V9h2v2Zm2-2h-2V7h2v2Z" fill="currentcolor"/></symbol><symbol id="arrow-double-right" viewBox="0 0 24 24"><path d="M6 19H4v-2h2v2Zm8 0h-2v-2h2v2Zm-6-2H6v-2h2v2Zm8 0h-2v-2h2v2Zm-6-2H8v-2h2v2Zm8 0h-2v-2h2v2Zm-6-2h-2v-2h2v2Zm8 0h-2v-2h2v2Zm-10-2H8V9h2v2Zm8 0h-2V9h2v2ZM8 9H6V7h2v2Zm8 0h-2V7h2v2ZM6 7H4V5h2v2Zm8 0h-2V5h2v2Z" fill="currentcolor"/></symbol><symbol id="filters" viewBox="0 0 24 24"><path d="M7 3v3H3v2h4v3h3V3H7Zm5 5h9V6h-9v2Zm5 5v3h4v2h-4v3h-3v-8h3Zm-5 5H3v-2h9v2Z" fill="currentcolor"/></symbol><symbol id="chevron-down" viewBox="0 0 24 24"><path d="m12 13.172 4.95-4.95 1.414 1.414L12 16 5.636 9.636 7.05 8.222l4.95 4.95Z" fill="currentcolor"/></symbol><symbol id="arrow-double-down" viewBox="0 0 24 24"><path d="M13 20h-2v-2h2v2Zm-2-2H9v-2h2v2Zm4 0h-2v-2h2v2Zm-6-2H7v-2h2v2Zm8 0h-2v-2h2v2ZM7 14H5v-2h2v2Zm12 0h-2v-2h2v2Zm-6-2h-2v-2h2v2Zm-2-2H9V8h2v2Zm4 0h-2V8h2v2ZM9 8H7V6h2v2Zm8 0h-2V6h2v2ZM7 6H5V4h2v2Zm12 0h-2V4h2v2Z" fill="currentcolor"/></symbol><symbol id="arrow-double-up" viewBox="0 0 24 24"><path d="M7 20H5v-2h2v2Zm12 0h-2v-2h2v2ZM9 18H7v-2h2v2Zm8 0h-2v-2h2v2Zm-6-2H9v-2h2v2Zm4 0h-2v-2h2v2Zm-2-2h-2v-2h2v2Zm-6-2H5v-2h2v2Zm12 0h-2v-2h2v2ZM9 10H7V8h2v2Zm8 0h-2V8h2v2Zm-6-2H9V6h2v2Zm4 0h-2V6h2v2Zm-2-2h-2V4h2v2Z" fill="currentcolor"/></symbol><symbol id="info-circle" viewBox="0 0 24 24"><path d="M11.997 22c-5.523 0-10-4.477-10-10 0-5.522 4.477-10 10-10s10 4.478 10 10c0 5.523-4.477 10-10 10Zm0-2a8 8 0 1 0 0-16 8 8 0 0 0 0 16Zm-1-13h2v2h-2V7Zm0 4h2v6h-2v-6Z" fill="currentcolor"/></symbol><symbol id="arrow-down" viewBox="0 0 24 24"><path d="m13 16.171 5.364-5.364 1.414 1.414L12 20 4.222 12.22l1.414-1.414L11 16.171V4h2V16.17Z" fill="currentcolor"/></symbol><symbol id="search" viewBox="0 0 24 24"><path d="m18.031 16.617 4.283 4.282-1.415 1.415-4.282-4.283A8.96 8.96 0 0 1 11 20c-4.968 0-9-4.032-9-9s4.032-9 9-9 9 4.032 9 9a8.96 8.96 0 0 1-1.969 5.617Zm-2.006-.742A6.98 6.98 0 0 0 18 11c0-3.867-3.133-7-7-7s-7 3.133-7 7 3.133 7 7 7a6.98 6.98 0 0 0 4.875-1.975l.15-.15Z" fill="currentcolor"/></symbol><symbol id="menu" viewBox="0 0 24 24"><path d="M3 4h18v2H3V4Zm0 7h18v2H3v-2Zm0 7h18v2H3v-2Z" fill="currentcolor"/></symbol><symbol id="darkmode" viewBox="0 0 24 24"><path d="M10 7.001a7 7 0 0 0 11.999 4.9v.1c0 5.523-4.477 10-10 10-5.522 0-10-4.477-10-10s4.478-10 10-10h.101a6.98 6.98 0 0 0-2.1 5Zm-6 5a8 8 0 0 0 15.061 3.762A9 9 0 0 1 8.237 4.94 7.999 7.999 0 0 0 4 12.001Z" fill="currentcolor"/></symbol><symbol id="lightmode" viewBox="0 0 24 24"><path d="M12.002 18a6 6 0 1 1 0-12 6 6 0 0 1 0 12Zm0-2a4 4 0 1 0 0-8 4 4 0 0 0 0 8Zm-1-15h2v3h-2V1Zm0 19h2v3h-2v-3ZM3.516 4.93 4.93 3.514l2.122 2.122L5.638 7.05 3.516 4.929Zm13.435 13.434 1.415-1.414 2.12 2.122-1.413 1.414-2.122-2.122Zm2.122-14.849 1.414 1.414-2.121 2.122-1.415-1.414 2.122-2.122ZM5.638 16.95l1.414 1.415-2.122 2.12-1.414-1.413 2.122-2.122ZM23.002 11v2h-3v-2h3Zm-19 0v2h-3v-2h3Z" fill="currentcolor"/></symbol><symbol id="chevron-left" viewBox="0 0 24 24"><path d="m10.828 12 4.95 4.95-1.414 1.415L8 12l6.364-6.364 1.414 1.414-4.95 4.95Z" fill="currentcolor"/></symbol><symbol id="chevron-right" viewBox="0 0 24 24"><path d="M12.95 12 8 16.95l1.414 1.415L15.778 12 9.414 5.637 8 7.05 12.95 12Z" fill="currentcolor"/></symbol><symbol id="chevron-up" viewBox="0 0 24 24"><path d="M12 11.05 16.95 16l1.414-1.414L12 8.222l-6.364 6.364L7.05 16 12 11.05Z" fill="currentcolor"/></symbol><symbol id="timer" viewBox="0 0 24 24"><path d="m17.618 5.968 1.453-1.453 1.414 1.414-1.453 1.453A9 9 0 1 1 12 4c2.125 0 4.078.736 5.618 1.968ZM12 20a7 7 0 1 0 0-14 7 7 0 0 0 0 14ZM11 8h2v6h-2V8ZM8 1h8v2H8V1Z" fill="currentcolor"/></symbol><symbol id="check-circle" viewBox="0 0 24 24"><path d="M4 12a8 8 0 1 1 16 0 8 8 0 0 1-16 0Zm8-10C6.477 2 2 6.477 2 12s4.477 10 10 10 10-4.477 10-10S17.523 2 12 2Zm5.457 7.457-1.414-1.414L11 13.086l-2.793-2.793-1.414 1.414L11 15.914l6.457-6.457Z" fill="currentcolor"/></symbol><symbol id="thunder" viewBox="0 0 24 24"><path d="M12.999 9h8l-10 15v-9h-7l9-15v9Zm-2 2V7.22L7.531 13H13v4.394L17.262 11h-6.263Z" fill="currentcolor"/></symbol><symbol id="thunder-filled" viewBox="0 0 24 24"><path d="M13 10h7l-9 13v-9H4l9-13v9Z" fill="currentcolor"/></symbol><symbol id="copy" viewBox="0 0 24 24"><path d="m21.116 6.007.114.02c.404.094.714.436.763.857L22 7v14l-.007.116c-.053.46-.418.824-.877.877L21 22H7l-.116-.007-.113-.02a1.001 1.001 0 0 1-.764-.857L6 21V7l.007-.116c.053-.46.418-.824.877-.877L7 6h14l.116.007ZM8 8v12h12V8H8Zm9.116-5.993a1 1 0 0 1 0 1.986L17 4H4v13l-.007.116c-.053.46-.418.824-.877.877L3 18l-.116-.007a1.001 1.001 0 0 1-.877-.877L2 17V3l.007-.116c.053-.46.418-.824.877-.877L3 2h14l.116.007Z" fill="currentcolor"/></symbol><symbol id="user" viewBox="0 0 24 24"><path d="M21.375 15.3v7.2H2.625v-7.875h2.25v-2.25H18.45l2.925 2.925Zm-16.5 4.95h14.25v-4.013l-1.575-1.575H4.875v5.588Zm6.75-18.75c2.7 0 4.875 2.175 4.875 4.875s-2.175 4.875-4.875 4.875A4.865 4.865 0 0 1 6.75 6.375c0-2.7 2.175-4.875 4.875-4.875Zm0 2.25A2.609 2.609 0 0 0 9 6.375 2.609 2.609 0 0 0 11.625 9a2.609 2.609 0 0 0 2.625-2.625 2.609 2.609 0 0 0-2.625-2.625Z" fill="currentcolor"/></symbol><symbol id="cancel-circle" viewBox="0 0 24 24"><path d="M12.001 22c-5.523 0-10-4.477-10-10s4.477-10 10-10 10 4.477 10 10-4.477 10-10 10Zm0-2a8 8 0 1 0 0-16 8 8 0 0 0 0 16Zm0-9.414 2.829-2.829 1.414 1.415L13.415 12l2.829 2.829-1.414 1.414L12 13.414l-2.828 2.829-1.414-1.414L10.587 12 7.759 9.172l1.414-1.415L12 10.586Z" fill="currentcolor"/></symbol></defs></svg>