<svg xmlns="http://www.w3.org/2000/svg" width="80" height="80" fill="none" viewBox="0 0 80 80"><path fill="#7005fc" d="M0 0h80v80H0z"/><g fill="#f7f6fa" clip-path="url(#a)"><path d="M62.559 65.031v-3.426h-4.555v-2.62h-3.426v2.62h-2.42v3.426h2.416v4.997c0 2.822 2.139 4.839 4.961 4.839h2.215v-3.426h-1.41c-1.413 0-2.336-.809-2.336-2.218V65.03zm9.914 6.41v3.426h-4.997c-2.822 0-4.917-2.013-4.917-4.839v-4.997h3.425v4.192c0 1.41.885 2.218 2.298 2.218zm-6.489-6.41v-3.426h4.998c2.822 0 4.917 2.013 4.917 4.835v4.997h-3.426v-4.184c0-1.413-.888-2.218-2.3-2.218h-4.189zM42.935 74.58h-3.552V61.61h3.555v1.48c.676-1.042 2.024-1.765 3.71-1.765 3.139 0 5.008 2.283 5.008 5.655v7.6h-3.555v-7.003c0-1.87-.806-3.009-2.283-3.009-1.636 0-2.88 1.194-2.88 3.685v6.327z"/><path fill-rule="evenodd" d="M34.535 70.352h3.71c-.78 2.621-3.347 4.516-6.644 4.516-3.969 0-6.794-2.855-6.794-6.795 0-3.868 2.876-6.748 6.823-6.748 3.81 0 6.953 2.725 6.77 7.6H28.282c.155 1.532 1.294 2.855 3.502 2.855 1.243 0 2.336-.543 2.75-1.428m-3.01-6.147c1.22 0 2.542.647 2.985 2.387h-6.098c.338-1.427 1.478-2.387 3.114-2.387" clip-rule="evenodd"/><path d="M4 74.58h3.555v-6.327c0-2.491 1.065-3.685 2.592-3.685 1.402 0 2.024 1.169 2.024 3.088v6.924h3.556v-6.327c0-2.491 1.064-3.685 2.592-3.685 1.402 0 2.024 1.169 2.024 3.088v6.924h3.555v-7.52c0-3.505-1.761-5.734-4.853-5.734-1.474 0-3.214.776-4.02 2.387-.78-1.507-2.127-2.39-4.022-2.39-1.582 0-2.75.754-3.451 1.76V61.61H4z"/></g><defs><clipPath id="a"><path fill="#fff" d="M4 58.984h72v15.75H4z"/></clipPath></defs></svg>