<svg xmlns="http://www.w3.org/2000/svg" width="64" height="64" style="shape-rendering:geometricPrecision;text-rendering:geometricPrecision;image-rendering:optimizeQuality;fill-rule:evenodd;clip-rule:evenodd"><path fill="#97904d" d="M23.5-.5h16q18.5 5.5 24 24v16q-5.5 18.5-24 24h-16Q5 58-.5 39.5v-16Q5 5 23.5-.5" style="opacity:1"/><path fill="#f6f6f3" d="M25.5 9.5h5a65 65 0 0 1-1 16 55 55 0 0 1-6.5-6q-.456-5.389 2.5-10" style="opacity:1"/><path fill="#f6f5f3" d="M32.5 9.5q2.55-.24 5 .5a20.7 20.7 0 0 1 3 7.5q-2.38 4.886-7 8a65 65 0 0 1-1-16" style="opacity:1"/><path fill="#f5f5f2" d="M20.5 20.5q5.35 3.085 9.5 8 1.238 5.567-.5 11a148 148 0 0 1-10.5-10 41.3 41.3 0 0 1 1.5-9" style="opacity:1"/><path fill="#f6f6f3" d="M39.5 21.5q1.762-.329 3 1a54 54 0 0 1 2 5.5 59.8 59.8 0 0 1-11 11.5q-1.738-5.433-.5-11a64 64 0 0 0 6.5-7" style="opacity:1"/><path fill="#f8f8f6" d="M17.5 31.5a211 211 0 0 1 12.5 12q.74 2.45.5 5h-19a129 129 0 0 1 6-17m27 0q1.935.837 2.5 3a117 117 0 0 1 4.5 14h-19q-.24-2.55.5-5a194 194 0 0 0 11.5-12" style="opacity:1"/></svg>