<svg xmlns="http://www.w3.org/2000/svg" width="40" height="40" fill="none" viewBox="0 0 40 40"><g clip-path="url(#a)"><path fill="#FDF6EF" d="M20 40c11.046 0 20-8.954 20-20S31.046 0 20 0 0 8.954 0 20s8.954 20 20 20"/><path fill="#DF9806" d="M6.069 19.608q0 .525.038 1.04h3.885q-.053-.516-.054-1.04a9.95 9.95 0 0 1 2.933-7.08 10 10 0 0 1 2.475-1.816V6.508c-5.404 1.9-9.278 7.047-9.278 13.1"/><path fill="#176092" d="M12.871 26.687a9.94 9.94 0 0 1-2.879-6.04H6.107a13.8 13.8 0 0 0 2.8 7.371h5.607a10 10 0 0 1-1.644-1.331z"/><path fill="#186092" d="M27.03 26.688c-.505.506-1.056.95-1.643 1.331h5.607a13.9 13.9 0 0 0 2.022-3.71h-4.22a10 10 0 0 1-1.765 2.38"/><path fill="#C3221A" d="M19.95 29.62a9.94 9.94 0 0 1-5.436-1.6H8.906a13.86 13.86 0 0 0 11.045 5.471c4.504 0 8.508-2.146 11.043-5.472h-5.607a9.94 9.94 0 0 1-5.436 1.602"/><path fill="#020202" d="M20.078 21.62c-.41.204-1.227.409-2.274.409-2.427 0-4.254-1.533-4.254-4.356s1.826-4.523 4.497-4.523c1.072 0 1.75.23 2.043.383l-.267.908c-.422-.204-1.022-.358-1.738-.358-2.018 0-3.36 1.29-3.36 3.551 0 2.108 1.213 3.463 3.309 3.463.677 0 1.367-.141 1.814-.358zm8.252-4.114c0 2.964-1.802 4.535-3.998 4.535s-3.87-1.763-3.87-4.369c0-2.733 1.698-4.522 3.997-4.522s3.87 1.802 3.87 4.356m-6.68.14c0 1.84.996 3.487 2.746 3.487s2.759-1.622 2.759-3.576c0-1.712-.895-3.5-2.747-3.5s-2.759 1.699-2.759 3.59m7.895-4.255a13 13 0 0 1 2.134-.166c1.098 0 1.903.255 2.414.715.473.409.754 1.034.754 1.801s-.23 1.393-.664 1.84c-.588.625-1.546.945-2.632.945-.332 0-.639-.013-.895-.077v3.45h-1.11zm1.111 4.152c.243.064.55.09.92.09 1.342 0 2.16-.652 2.16-1.84s-.805-1.686-2.032-1.686c-.485 0-.856.038-1.047.09v3.347z"/></g><defs><clipPath id="a"><path fill="#fff" d="M0 0h40v40H0z"/></clipPath></defs></svg>