<svg xmlns="http://www.w3.org/2000/svg" width="40" height="40" fill="none" viewBox="0 0 40 40"><g clip-path="url(#a)"><path fill="#8c35fd" d="M20 40c11.046 0 20-8.954 20-20S31.046 0 20 0 0 8.954 0 20s8.954 20 20 20"/><path fill="#fff" d="M28.86 18.124c-.655 1.328-1.843 2.214-3.183 2.434v-9.67c1.312.214 2.477 1.067 3.14 2.348h2.77c-.866-2.692-3.111-4.674-5.91-4.942V6.521h-1.715v1.825c-3.398.54-5.883 3.638-5.883 7.378s2.484 6.838 5.883 7.378v1.924h1.715v-1.872c2.83-.272 5.092-2.292 5.937-5.028h-2.753zm-8.208-2.402c0-2.445 1.461-4.242 3.31-4.745v9.492c-1.848-.503-3.31-2.301-3.31-4.746"/><path fill="#fff" d="M19.175 30.795c-4.46 0-8.104-3.644-8.104-8.104 0-3.165 1.822-5.946 4.507-7.24v-2.926c-4.172 1.487-7.192 5.467-7.192 10.166 0 5.946 4.843 10.79 10.79 10.79 4.698 0 8.678-3.021 10.165-7.193h-2.925c-1.294 2.685-4.076 4.507-7.24 4.507"/></g><defs><clipPath id="a"><path fill="#fff" d="M0 0h40v40H0z"/></clipPath></defs></svg>