<svg xmlns="http://www.w3.org/2000/svg" width="40" height="40" fill="none" viewBox="0 0 40 40"><g clip-path="url(#a)"><path fill="#23CC00" d="M20 40c11.046 0 20-8.954 20-20S31.046 0 20 0 0 8.954 0 20s8.954 20 20 20"/><path fill="#FFEF43" d="M18.123 30.8c-4.46 0-8.104-3.644-8.104-8.104 0-3.165 1.822-5.946 4.507-7.24V12.53c-4.172 1.486-7.193 5.466-7.193 10.165 0 5.947 4.844 10.79 10.79 10.79 4.7 0 8.68-3.02 10.166-7.193h-2.925c-1.295 2.686-4.076 4.507-7.241 4.507"/><path fill="#FFEF43" d="M18.67 16.916h.189c.331 0 .71-.048.993-.048l1.985 5.958h2.601l-2.648-6.573c1.23-.661 2.128-2.175 2.128-4.066 0-2.79-1.75-4.303-5.106-4.303h-2.507v14.941h2.364v-5.91zm0-6.999h.379c1.75 0 2.506.757 2.506 2.507s-.757 2.506-2.506 2.506h-.379zm11.064 4.492.473-4.114c.567.142 1.182.426 1.797.851V8.783a4.5 4.5 0 0 0-1.513-.567l.237-1.702H29.12l-.142 1.608c-2.27.188-3.688 1.844-3.688 4.113s1.324 3.5 2.79 4.067l-.473 4.019c-.662-.189-1.418-.52-2.27-1.04v2.411c.662.331 1.324.614 1.939.757l-.237 1.75h1.608l.189-1.609c2.27-.141 3.83-1.89 3.83-4.207 0-1.75-.851-3.216-2.932-3.972zm-1.277-.426c-.756-.378-1.087-.993-1.087-1.844 0-1.135.52-1.844 1.56-1.985zm.426 6.526.473-3.83c.757.378 1.23.945 1.23 1.843 0 1.087-.568 1.892-1.703 1.986"/></g><defs><clipPath id="a"><path fill="#fff" d="M0 0h40v40H0z"/></clipPath></defs></svg>