<svg xmlns="http://www.w3.org/2000/svg" width="40" height="40" fill="none" viewBox="0 0 40 40"><g clip-path="url(#a)"><path fill="#23CC00" d="M20 40c11.046 0 20-8.954 20-20S31.046 0 20 0 0 8.954 0 20s8.954 20 20 20"/><path fill="#fff" d="M19.928 33.498c4.7 0 8.68-3.02 10.165-7.193H27.17c-1.295 2.686-4.076 4.507-7.241 4.507-4.46 0-8.104-3.644-8.104-8.104 0-3.164 1.822-5.946 4.507-7.24v-2.925c-4.172 1.486-7.193 5.466-7.193 10.165 0 5.947 4.844 10.79 10.79 10.79m6.185-13.186v-3.933c1.343.336 2.398.768 2.398 1.919 0 1.055-.911 1.822-2.398 2.014m-1.821 3.643h1.918V22.47c2.83-.336 4.651-1.966 4.651-4.172 0-3.069-2.445-3.74-4.747-4.172V10.05c1.104.096 2.302.431 3.405.96v-2.4a11.3 11.3 0 0 0-3.309-.671V6.5h-1.918v1.44c-2.925.336-4.603 1.966-4.603 4.027 0 3.117 2.397 3.836 4.699 4.268v4.076c-1.39-.192-2.877-.767-4.603-1.678v2.542c1.486.719 3.02 1.199 4.507 1.294zm.096-10.021c-1.343-.288-2.35-.767-2.35-1.966 0-1.104.863-1.775 2.35-1.919z"/></g><defs><clipPath id="a"><path fill="#fff" d="M0 0h40v40H0z"/></clipPath></defs></svg>