<svg xmlns="http://www.w3.org/2000/svg" width="200" height="200"><path fill="#00fe87" d="M149 34c17.037 13.966 29.322 31.728 32.719 53.902 1.97 21.703-2.029 44.227-15.98 61.674-3.085 3.64-6.369 7.049-9.739 10.424l-1.992 2.027c-15.655 14.816-37.453 20.698-58.508 20.223-21.78-.923-40.398-11.19-55.5-26.25l-2.25-2.18C28.86 144.617 23.244 132.26 20 120l-.68-2.555c-5.002-22.543.55-44.416 12.672-63.597C43.937 36.907 59.998 25.293 80 20l2.555-.68C106.12 14.091 129.55 20.28 149 34"/><path fill="#012" d="M123 41c6.517.858 11.461 4.652 17 8l-7 14 3.75 3.813C143.474 74.395 145 80.94 145 91h-18l-2.148-7.422c-.782-2.366-1.568-4.444-2.852-6.578-2.41-1.247-2.41-1.247-5-2l-3-1c-4.093-.25-8.187-.27-12.287-.295a449 449 0 0 1-6.024-.105l-3.865-.026-3.528-.044c-4.996.712-8.043 3.217-11.546 6.72C74.394 83.632 74.394 83.632 73 91h42c-2.491 6.228-5.82 12.094-9 18H73c1.418 7.427 1.418 7.427 5.75 14.063L81 124l2.227 1.038c5.497 1.907 11.45 1.331 17.21 1.337l3.971.074 3.838.012 3.49.025c4.966-.74 8.027-3.25 11.514-6.736 2.356-3.382 2.356-3.382 3.75-10.75h18c0 10.568-2.75 18.235-10 26-10.683 10.038-21.052 10.426-35.062 10.188q-2.324-.024-4.647-.042A1417 1417 0 0 1 84 145l-.92 2.346c-1.067 2.622-2.31 5.006-3.705 7.466l-1.352 2.395L77 159c-6.517-.858-11.461-4.652-17-8l7-14-3.25-3.5c-6.479-7.397-8.884-14.19-8.988-23.941l-.025-2.191q-.02-2.295-.032-4.592a394 394 0 0 0-.062-4.64c-.223-11.667.073-22.516 8.607-31.511 6.801-7.024 13.578-11.259 23.574-11.852q2.04 0 4.078.032l2.19.008c2.282.011 4.564.036 6.846.062q2.336.016 4.673.027 5.695.035 11.389.098l.92-2.346c1.067-2.622 2.31-5.006 3.705-7.467l1.352-2.394z"/></svg>