<svg xmlns="http://www.w3.org/2000/svg" width="40" height="40" fill="none" viewBox="0 0 40 40"><g clip-path="url(#a)"><path fill="#feda3f" d="M20 40c11.046 0 20-8.954 20-20S31.046 0 20 0 0 8.954 0 20s8.954 20 20 20"/><path fill="#010100" fill-rule="evenodd" d="M29.587 10.415q.346 2.144.865 4.253c-.022.05-.05.094-.072.144-1.247.627-2.502 1.247-3.749 1.875q-.662-1.58-2.306-2.055a7.4 7.4 0 0 0-1.586-.108c.815-1.636 1.636-3.273 2.451-4.901 1.47.237 2.934.497 4.398.792m-13.191-1.55q1.751-1.143 3.46-2.342.148-.02.288.036 1.783 1.19 3.532 2.416-1.038 3.058-2.054 6.127-.93.586-1.622 1.441a10.7 10.7 0 0 0-1.694-1.585c-.664-1.983-1.32-3.965-1.983-5.947a.27.27 0 0 1 .072-.144zm-5.983 1.55a39 39 0 0 0 4.109-.864.32.32 0 0 1 .288.072c.814 1.636 1.636 3.265 2.45 4.901q-2.692-.27-3.892 2.163c-1.247-.628-2.502-1.248-3.749-1.875-.021-.05-.05-.093-.072-.144.324-1.413.613-2.825.865-4.253M6.52 20.003a121 121 0 0 1 2.38-3.676c1.412.468 2.832.93 4.252 1.37.072.936.375 1.802.9 2.594q.444.694.974 1.334-2.994 1.07-6.02 2.054a40 40 0 0 1-2.487-3.676zm8.146 10.452a86 86 0 0 0-4.253-.864c-.23-1.327-.483-2.646-.757-3.965a.64.64 0 0 1 0-.433c1.946-.98 3.878-1.96 5.803-2.955.75.793 1.47 1.614 2.163 2.451a276 276 0 0 1-2.812 5.694c-.05.022-.093.05-.144.072M20 33.483a50 50 0 0 1-3.676-2.452 203 203 0 0 0 1.874-5.694q.767.64 1.514 1.334c.194.05.382.05.577 0 .476-.404.937-.836 1.37-1.298q.087-.074.143.036c.635 1.86 1.255 3.72 1.875 5.586A40 40 0 0 1 20 33.483m10.344-7.785q-.4 1.946-.757 3.893c-1.398.244-2.79.512-4.18.792a.5.5 0 0 1-.253-.072 342 342 0 0 1-2.775-5.622c.7-.814 1.391-1.636 2.09-2.451q2.943 1.461 5.876 2.955c.05.166.05.34 0 .505zm.757-2.055a149 149 0 0 1-6.127-2.018 7.95 7.95 0 0 0 1.946-3.929c1.334-.447 2.653-.9 3.965-1.37a.32.32 0 0 1 .252.073q1.198 1.786 2.342 3.604a91 91 0 0 1-2.379 3.64" clip-rule="evenodd"/></g><defs><clipPath id="a"><path fill="#fff" d="M0 0h40v40H0z"/></clipPath></defs></svg>