<svg width="445" height="445" viewBox="0 0 445 445" fill="none" xmlns="http://www.w3.org/2000/svg">
<g clip-path="url(#clip0_285_9)">
<path d="M222.22 0C344.96 0 444.44 99.5 444.44 222.22C444.44 344.96 344.96 444.44 222.22 444.44C99.5 444.44 0 344.95 0 222.22C0 99.5 99.5 0 222.22 0Z" fill="#79C027"/>
<path d="M230.41 237.911H314.85C316.65 237.911 317.5 237.911 317.63 235.551C318.32 226.961 318.32 218.321 317.63 209.721C317.63 208.051 316.8 207.361 314.99 207.361H146.94C144.86 207.361 144.3 208.051 144.3 210.001V234.721C144.3 237.911 144.3 237.911 147.63 237.911H230.41ZM308.2 178.471C308.44 177.841 308.44 177.151 308.2 176.531C306.79 173.461 305.12 170.531 303.18 167.781C300.26 163.081 296.82 158.751 292.9 154.861C291.05 152.511 288.91 150.401 286.51 148.611C274.49 138.381 260.2 131.141 244.84 127.501C237.09 125.761 229.17 124.931 221.23 125.001H146.65C144.57 125.001 144.29 125.831 144.29 127.641V176.941C144.29 179.021 144.29 179.581 146.93 179.581H307.2C307.2 179.581 308.59 179.301 308.87 178.471H308.19H308.2ZM308.2 266.801C305.84 266.541 303.46 266.541 301.1 266.801H147.08C145 266.801 144.3 266.801 144.3 269.581V317.781C144.3 320.001 144.3 320.561 147.08 320.561H218.19C221.59 320.821 224.99 320.581 228.32 319.871C238.64 319.131 248.79 316.891 258.47 313.201C261.99 311.981 265.39 310.391 268.6 308.481H269.57C286.24 299.811 299.78 286.191 308.32 269.471C308.32 269.471 309.29 267.371 308.2 266.821V266.801ZM116.39 345.551V344.721V312.361V301.391V268.751C116.39 266.941 116.39 266.671 114.17 266.671H84.0299C82.3599 266.671 81.6699 266.671 81.6699 264.451V238.061H113.89C115.69 238.061 116.39 238.061 116.39 235.701V209.591C116.39 207.921 116.39 207.511 114.17 207.511H84.0299C82.3599 207.511 81.6699 207.511 81.6699 205.291V180.851C81.6699 179.321 81.6699 178.911 83.8899 178.911H113.75C115.83 178.911 116.39 178.911 116.39 176.271V101.411C116.39 99.1909 116.39 98.6309 119.17 98.6309H223.33C230.89 98.9309 238.4 99.7609 245.83 101.131C261.14 103.961 275.85 109.431 289.3 117.241C298.22 122.491 306.43 128.831 313.74 136.131C319.24 141.841 324.2 148.021 328.6 154.601C332.97 161.271 336.6 168.401 339.45 175.851C339.8 177.791 341.66 179.101 343.6 178.771H368.46C371.65 178.771 371.65 178.771 371.79 181.831V204.611C371.79 206.831 370.96 207.391 368.73 207.391H349.56C347.62 207.391 347.06 207.391 347.2 209.891C347.96 218.351 347.96 226.841 347.2 235.301C347.2 237.661 347.2 237.941 349.85 237.941H371.78C372.75 239.191 371.78 240.441 371.78 241.701C371.92 243.311 371.92 244.941 371.78 246.551V263.361C371.78 265.721 371.09 266.421 369 266.421H342.75C340.92 266.071 339.14 267.241 338.72 269.061C332.47 285.311 322.47 299.881 309.55 311.561C304.83 315.811 299.87 319.811 294.69 323.501C289.13 326.701 283.72 330.031 278.02 332.671C267.53 337.391 256.53 340.871 245.24 343.081C234.52 345.001 223.65 345.871 212.74 345.721H116.35V345.581L116.39 345.551Z" fill="#FEFEFD"/>
</g>
<defs>
<clipPath id="clip0_285_9">
<rect width="444.44" height="444.44" fill="white"/>
</clipPath>
</defs>
</svg>
