<svg width="28" height="28" viewBox="0 0 28 28" fill="none" xmlns="http://www.w3.org/2000/svg">
<path d="M27.578 17.3867C25.7082 24.8867 18.1118 29.4511 10.6109 27.5809C3.11305 25.7111 -1.45134 18.1142 0.419279 10.6148C2.28826 3.11387 9.88462 -1.45087 17.3833 0.418928C24.8837 2.28873 29.448 9.88625 27.578 17.3867Z" fill="#26A17B"/>
<path fill-rule="evenodd" clip-rule="evenodd" d="M15.7714 15.5872C15.6725 15.5946 15.161 15.6251 14.0201 15.6251C13.1127 15.6251 12.4684 15.5979 12.2424 15.5872C8.73554 15.4329 6.11801 14.8225 6.11801 14.0916C6.11801 13.3607 8.73554 12.751 12.2424 12.5943V14.9792C12.4717 14.9957 13.1283 15.0345 14.0358 15.0345C15.1247 15.0345 15.67 14.9891 15.7681 14.98V12.596C19.2675 12.7519 21.8793 13.3623 21.8793 14.0916C21.8793 14.8208 19.2684 15.4313 15.7681 15.5864L15.7714 15.5872ZM15.7714 12.3493V10.2152H20.6551V6.9608H7.35871V10.2152H12.2415V12.3485C8.27275 12.5308 5.28812 13.3169 5.28812 14.259C5.28812 15.2011 8.27275 15.9865 12.2415 16.1696V23.0083H15.7706V16.1671C19.7303 15.9848 22.71 15.1995 22.71 14.2582C22.71 13.3169 19.7328 12.5316 15.7706 12.3485L15.7714 12.3493Z" fill="white"/>
</svg>
