<svg xmlns="http://www.w3.org/2000/svg" width="32" height="32" fill="none" viewBox="0 0 32 32"><path fill="#8247e5" d="M21.092 11.638c-.385-.22-.881-.22-1.32 0l-3.077 1.815-2.087 1.156-3.022 1.815c-.385.22-.881.22-1.32 0L7.85 14.99c-.385-.22-.66-.66-.66-1.156v-2.696c0-.44.22-.881.66-1.156l2.362-1.376c.385-.22.881-.22 1.32 0l2.362 1.43c.385.22.66.66.66 1.157v1.815l2.087-1.21V9.93c0-.44-.22-.881-.66-1.156l-4.394-2.586c-.385-.22-.881-.22-1.32 0L5.762 8.83c-.44.22-.66.66-.66 1.101v5.063c0 .44.22.881.66 1.156l4.45 2.586c.384.22.88.22 1.32 0l3.022-1.76 2.087-1.21 3.022-1.76c.385-.22.881-.22 1.32 0l2.362 1.376c.385.22.66.66.66 1.156v2.696c0 .44-.22.881-.66 1.156l-2.362 1.43c-.385.22-.881.22-1.32 0l-2.362-1.376c-.385-.22-.66-.66-.66-1.157v-1.76L14.554 19v1.815c0 .44.22.881.66 1.156l4.45 2.586c.385.22.881.22 1.32 0l4.45-2.586c.385-.22.66-.66.66-1.156v-5.118c0-.44-.22-.881-.66-1.156z"/></svg>