<svg xmlns="http://www.w3.org/2000/svg" width="844" height="844" version="1.0" viewBox="0 0 633 633"><path d="M414.8 107.5c-.2.1-3.9.5-8.3.9-4.4.3-9 .8-10.1 1-1.2.2-3.7.7-5.5 1-7.4 1.2-9.7 1.7-17.1 3.6-16.6 4.2-43.8 15.6-52.9 22.1-1.5 1-3 1.9-3.3 1.9s-3.6 2.1-7.4 4.6c-41.9 28.9-71.9 71.3-84.1 118.7-1.6 6.1-3.2 13.2-3.6 15.7-.3 2.5-.8 5.2-1 6-.5 1.8-1.3 10.6-2 22.3l-.6 8.7 37.7-.2 37.7-.3.3-3.5c.5-7.8 1.4-16.6 1.9-19 .2-1.4.7-3.9 1.1-5.5 1.4-7.2 5.9-19.7 10.4-29 19.3-39.8 58.4-67.7 102.5-73.1 6.9-.8 24.7-.8 30.8 0 12.2 1.7 25.3 5.2 34.7 9.3 7.1 3.1 8.7 3.9 15.8 8 34.3 20 58.4 56 63.9 95.3 1 6.9 1 27.7.1 35-1.5 12-6 27.1-11.3 38.5-2.5 5.2-11.9 21.1-13.5 22.5-.3.3-2.5 3-5 6-18.3 22.4-45.4 38.5-74.6 44.4-8.9 1.8-13.7 2.4-20.9 2.5l-5 .1v37.5c0 32.6.2 37.5 1.5 37.6 4.5.3 23.5-.9 26-1.6.8-.2 4-.7 7-1 3-.4 5.7-.8 6-1 .4-.2 2.2-.7 4.1-1 10-1.7 29.3-8.3 42.4-14.4 23.2-10.9 39.3-22.1 57.5-40.1 12.1-11.9 18-18.9 26.5-31.4 18.2-26.8 30.9-60.4 34-90.1.4-3.3.9-7.6 1.1-9.5 1.9-15.2-.3-43.6-4.8-63-14.2-60.8-57.2-114-113.2-140-21.3-9.9-39.7-15.1-65.6-18.5-4.8-.7-32.7-1.5-33.2-1"/><path d="M199.7 111.6c-.1.1-4.2.4-9.2.8-4.9.3-9.9.8-11 1s-4 .7-6.5 1.1-5.6.9-7 1.2c-1.4.2-7.5 1.7-13.6 3.3-24.4 6.5-51.1 19.6-70.9 34.9-3.2 2.5-6.8 5.3-7.9 6.1-5.8 4.5-24.6 24.5-30.9 32.8C35.8 202 28 213.5 28 214.4c0 .2-1.6 3.3-3.6 6.8-11.1 19.5-20.7 50.5-23.2 74.3-.9 9-.9 35.9 0 45C8.6 413.4 57.6 479.2 126 508.3c12.5 5.2 29.6 10.6 39.5 12.3 1.7.2 5.5.9 8.5 1.4 21.7 3.8 50.4 3.2 73.5-1.5 33-6.7 61.7-20.3 90.5-43 5.4-4.2 26.9-26.3 31.1-31.9 9.3-12.5 14.5-20.7 21-33.1 9.8-18.9 17.9-43.5 20.4-62.5.4-3 .9-6.4 1.1-7.5s.7-7.1 1-13.3l.7-11.2H338l-.1 2.7c0 1.6-.2 4.1-.4 5.8-.2 1.6-.6 5.7-1 9-1.1 10.9-5.8 27.1-11.1 38.1-9.7 20.2-24 37.5-41.9 50.7-10.6 7.8-30.5 17.5-42 20.4-3.7.9-15 3.1-19.5 3.8-5.5.9-26.2.9-31 0-12.7-2.1-16.3-2.9-23.4-5.2C124.8 429.8 92 396 80.2 353c-1.2-4.1-2.4-9.1-2.7-11s-.8-4.9-1.1-6.5c-.3-1.7-.7-8-.9-14-1.7-63.6 43.6-120 106-131.9 11.1-2.2 13.2-2.4 19.7-2.5l5.6-.1v-37.5c0-20.6-.3-37.5-.7-37.6-1.9-.2-6.2-.4-6.4-.3"/></svg>